<?xml version="1.0" standalone="no"?>
<!DOCTYPE svg PUBLIC "-//W3C//DTD SVG 20010904//EN"
 "http://www.w3.org/TR/2001/REC-SVG-20010904/DTD/svg10.dtd">
<svg version="1.0" xmlns="http://www.w3.org/2000/svg"
 width="400.000000pt" height="400.000000pt" viewBox="0 0 400.000000 400.000000"
 preserveAspectRatio="xMidYMid meet">
<metadata>
Created by potrace 1.14, written by Peter Selinger 2001-2017
</metadata>
<g transform="translate(0.000000,400.000000) scale(0.100000,-0.100000)"
fill="#000000" stroke="none">
<path d="M3073 3535 c-74 -27 -184 -95 -293 -182 -168 -135 -480 -463 -735
-773 -38 -47 -72 -87 -75 -90 -3 -3 -71 -86 -150 -185 -331 -413 -371 -458
-355 -412 2 6 7 30 10 52 3 22 15 92 26 155 11 63 22 131 25 150 3 19 10 54
15 77 5 23 11 63 14 90 3 26 10 73 15 103 27 155 40 406 25 499 -36 232 -167
322 -341 234 -62 -31 -191 -151 -246 -228 -79 -111 -184 -309 -251 -475 -66
-161 -144 -419 -161 -534 -4 -21 -8 -41 -10 -45 -2 -3 -7 -33 -10 -66 -4 -33
-9 -71 -11 -85 -9 -42 -9 -230 -1 -315 14 -146 82 -355 128 -392 55 -46 121
-12 142 72 14 55 7 104 -24 170 -80 166 -68 463 30 780 17 55 32 107 34 115 4
16 40 110 55 145 5 11 16 36 25 57 9 20 16 38 16 41 0 12 109 202 157 274 90
136 237 254 264 212 7 -11 14 -105 11 -139 0 -3 -3 -37 -7 -75 -10 -122 -14
-151 -35 -275 -5 -30 -11 -71 -14 -90 -8 -53 -22 -135 -40 -230 -15 -84 -22
-131 -32 -200 -2 -19 -8 -64 -13 -100 -16 -110 -8 -248 16 -302 29 -64 67 -98
110 -98 74 0 112 37 398 395 165 206 338 419 345 425 3 3 39 46 80 95 79 95
110 131 150 175 14 15 54 60 90 101 256 289 532 525 668 573 72 26 101 27 113
4 18 -33 14 -227 -6 -351 -8 -48 -45 -253 -49 -272 -102 -471 -308 -1160 -551
-1840 -65 -181 -63 -271 7 -319 64 -45 105 -6 162 149 77 212 263 773 331
1000 93 312 216 774 239 898 2 15 7 35 10 45 3 9 7 33 10 52 3 19 8 46 11 60
26 121 47 331 48 460 0 357 -130 502 -370 415z"/>
</g>
</svg>
