<?xml version="1.0" encoding="utf-8"?>
<!-- Generator: Adobe Illustrator 26.0.2, SVG Export Plug-In . SVG Version: 6.00 Build 0)  -->
<svg version="1.1" id="Capa_1" xmlns="http://www.w3.org/2000/svg" xmlns:xlink="http://www.w3.org/1999/xlink" x="0px" y="0px"
	 viewBox="0 0 398.2 195.6" style="enable-background:new 0 0 398.2 195.6;" xml:space="preserve">
<style type="text/css">
	.st0{fill:none;stroke:#E86843;stroke-width:4;stroke-miterlimit:10;}
	.st1{fill:#1B2238;}
	.st2{fill:#FFFFFF;stroke:#1B2238;stroke-width:3;stroke-linecap:round;stroke-linejoin:round;stroke-miterlimit:10;}
	.st3{fill:none;stroke:#1B2238;stroke-width:3;stroke-linecap:round;stroke-linejoin:round;stroke-miterlimit:10;}
</style>
<g>
	
		<ellipse transform="matrix(0.7071 -0.7071 0.7071 0.7071 -7.3986 166.0014)" class="st0" cx="196.7" cy="91.9" rx="79.5" ry="79.5"/>
	<g>
		<path class="st1" d="M369.1,95.4h-52.6v-6.9h52.1c2,0,3.7,1.6,3.7,3.7v0C372.3,93.9,370.9,95.4,369.1,95.4z"/>
		<path class="st1" d="M29,84.8h52.6v6.9H29.5c-2,0-3.7-1.6-3.7-3.7v0C25.8,86.3,27.3,84.8,29,84.8z"/>
	</g>
	<g>
		<g>
			<polygon class="st2" points="120.9,127.9 80.7,108.1 80.7,67.8 120.9,49.2 			"/>
			<rect x="120.9" y="49.2" class="st2" width="40.3" height="78.7"/>
			<line class="st3" x1="130.8" y1="60.5" x2="153.4" y2="60.5"/>
			<path class="st1" d="M216.1,76h-55.8v-6.9h55.4c2,0,3.7,1.6,3.7,3.7v0C219.4,74.6,217.9,76,216.1,76z"/>
			<path class="st1" d="M216.1,108.1h-55.8v-6.9h55.4c2,0,3.7,1.6,3.7,3.7v0C219.4,106.6,217.9,108.1,216.1,108.1z"/>
		</g>
		<g>
			<polygon class="st2" points="276.9,131.3 317.2,111.4 317.2,71.1 276.9,52.6 			"/>
			<rect x="236.7" y="52.6" class="st2" width="40.3" height="78.7"/>
			<line class="st3" x1="267.1" y1="63.8" x2="244.4" y2="63.8"/>
		</g>
	</g>
</g>
</svg>
