<?xml version="1.0" encoding="utf-8"?>
<!-- Generator: Adobe Illustrator 26.0.2, SVG Export Plug-In . SVG Version: 6.00 Build 0)  -->
<svg version="1.1" id="Layer_1" xmlns="http://www.w3.org/2000/svg" xmlns:xlink="http://www.w3.org/1999/xlink" x="0px" y="0px"
	 viewBox="0 0 612 792" style="enable-background:new 0 0 612 792;" xml:space="preserve">
<style type="text/css">
	.st0{clip-path:url(#SVGID_00000103235206307565745060000007743781283882451374_);}
	.st1{fill:#9DAAF2;}
	.st2{fill:#AF8C67;}
	.st3{fill:#A8815A;}
	.st4{fill:#F3D4CF;}
	.st5{opacity:0.65;fill:#D4958A;enable-background:new    ;}
	.st6{fill:#D4958A;}
	.st7{fill:#C5796E;}
	.st8{fill:#1D2834;}
	.st9{fill:#0D1216;}
	.st10{fill:#E4B3AB;}
	.st11{fill:#E3939C;}
	.st12{fill:#D3737E;}
	.st13{fill:#F1B5BB;}
	.st14{fill:#FFFFFF;}
	.st15{fill:#7186B3;}
	.st16{fill:#010101;}
	.st17{fill:#B69675;}
	.st18{fill:#C6AC93;}
	.st19{fill:#FAE4E1;}
	.st20{display:none;opacity:0.5;fill:#EDF0F1;enable-background:new    ;}
</style>
<g id="Layer_1_00000064313928683643349510000005070468354145328512_">
	<g>
		<g>
			<defs>
				<circle id="SVGID_1_" cx="301.8" cy="486.1" r="268.8"/>
			</defs>
			<use xlink:href="#SVGID_1_"  style="overflow:visible;fill:#9DAAF2;"/>
			<clipPath id="SVGID_00000085219819088084191370000011311807678086381193_">
				<use xlink:href="#SVGID_1_"  style="overflow:visible;"/>
			</clipPath>
			
				<g id="svga-group-backs-single_00000111189596451172709970000001944620077429207447_" style="clip-path:url(#SVGID_00000085219819088084191370000011311807678086381193_);">
				<path id="SvgjsPath6902_00000059988287743068262080000009166863493447799972_" class="st1" d="M-17.3,96.2h662.1v662.1H-17.3
					V96.2z"/>
			</g>
		</g>
	</g>
</g>
<g id="Layer_2_00000137126026856404482330000005188605076905525157_">
	<g>
		<g id="svga-group-wrapper_00000129203996344346638160000005256629302196037760_">
			<g id="svga-group-humanwrap-move_00000062185195491709518720000001814142235028898449_" transform="matrix(1,0,0,1,0,0)">
				<g id="svga-group-humanwrap_00000090296835969548994820000014497458272487300489_">
					<g id="svga-group-hair-back-move_00000157275749915267239730000014674526522597700541_" transform="matrix(1,0,0,1,0,0)">
						<g id="svga-group-hair-back_00000171692205445667921930000001654726951113761673_">
							<path id="SvgjsPath6856_00000096043691175845373160000003348950264840842142_" class="st2" d="M411.6,243.8
								c0,0,17.1,3.3,31.5,36s8.4,70.2,6.6,96.3c-1.8,26.1-6,108-32.7,149.4s-39.3,43.8-70.2,55.2c-30.9,11.1-109.5,7.8-142.8-22.2
								c-33.3-30.3-19.5-80.7-11.1-99C201.3,440.9,411.6,243.8,411.6,243.8"/>
							<path id="SvgjsPath6857_00000037689203520492045700000018016106642982369453_" class="st3" d="M222.6,456.8
								c0,0-8.4,21.3-10.2,36s7.8,28.5,13.5,36.3c6.3,8.4,18,22.8,18.3,51.6c0.3,18,124.8-16.5,124.8-16.5
								c11.1-8.7,33.3-28.8,46.8-62.7c11.4-28.5,11.4-53.4,10.5-67.2c-51.6,18.6-103.5,37.5-155.1,56.1l-8.4-12.9L222.6,456.8
								L222.6,456.8z"/>
						</g>
					</g>
					<g id="svga-group-humanbody-back_00000030451699555141224140000007677019814042819231_">
						<path id="SvgjsPath6701_00000059999620464461614260000004136492934310294941_" class="st4" d="M514.5,750.2l-5.1-64.5
							c0,0,2.1-27-26.4-45.9s-70.2-30.3-88.5-42.6s-27.6-13.5-27-50.7s2.7-120.9,2.7-120.9H247.8c0,0,2.1,83.7,2.7,120.9
							c0.6,37.2-8.7,38.4-27,50.7s-60,23.7-88.5,42.6c-28.5,18.9-26.4,45.9-26.4,45.9l-4.8,64.5H514.5z"/>
					</g>
					<g id="svga-group-chinshadow-single_00000159444313409292592970000005707650235086694792_">
						<path id="SvgjsPath6697_00000093135763692405502200000013976537738301350800_" class="st5" d="M250.2,557.9
							c17.7,17.4,37.8,27.9,58.8,27.9s41.1-10.5,58.8-27.9c-0.3-3.3-0.3-7.2-0.3-11.4c0.6-37.2,2.7-120.9,2.7-120.9H247.8
							c0,0,2.1,83.7,2.7,120.9C250.5,550.7,250.5,554.6,250.2,557.9z"/>
					</g>
					<g id="svga-group-humanbody-front_00000137112292013225430050000001110299709324020630_">
						<path id="SvgjsPath6702_00000158011692008254976390000002686537775719792826_" class="st6" d="M230.4,619.4
							c15.3,8.7,35.4,15.6,52.8,17.1c1.2,0,1.2-1.8,0.3-2.1c-8.4-3.3-17.7-5.1-26.4-7.8c-8.7-2.7-17.4-6-26.4-8.1
							C230.4,618.2,229.8,619.1,230.4,619.4L230.4,619.4z M336,638c15.9-1.8,33.9-9,47.7-17.4c0.9-0.6,0.3-1.8-0.6-1.5
							c-7.8,2.7-15.6,6-23.4,8.7s-16.2,4.5-24,7.5C334.2,635.6,334.2,638,336,638L336,638z"/>
						<path id="SvgjsPath6703_00000031888733450337225890000006774875803079545475_" class="st7" d="M514.2,749.9l-6.3-64.2
							c0-6.6-1.5-13.5-4.5-19.8c-2.7-6.3-6.9-11.7-11.7-16.5c-4.8-4.8-10.5-8.4-16.5-12s-12.3-6.6-18.6-9.3
							c-12.6-5.7-25.8-10.8-38.7-16.2c-6.6-2.7-12.9-5.7-19.2-9c-3.3-1.8-6.3-3.6-9-5.7c-3-1.8-6-3.6-9-5.7c-3-2.1-6-4.5-8.4-7.8
							c-2.4-3-3.9-6.6-5.1-10.2c-2.1-7.2-2.4-14.4-2.4-21.6c0-14.1,0.6-28.2,0.9-42.3c0.6-28.2,1.8-56.1,2.7-84l1.8,1.8l-61.2-0.6
							l-61.2-0.3l0.9-0.9l2.1,84c0.3,14.1,0.9,27.9,1.2,42c0,7.2-0.3,14.1-2.4,21.3c-0.9,3.6-2.7,6.9-4.8,9.9
							c-2.4,3-5.1,5.4-8.1,7.5s-6,3.9-8.7,6c-2.7,1.8-5.7,3.9-9,5.7c-6.3,3.6-12.6,6.3-19.2,9.3c-12.9,5.7-25.8,10.8-38.4,16.8
							c-6.3,3-12.6,6.3-18.3,9.6c-6,3.6-11.4,7.2-16.2,12s-8.7,10.2-11.4,16.2c-1.2,3-2.4,6.3-3,9.3c-0.6,3.3-1.2,6.6-0.9,9.6v0.6
							l-4.5,64.5l-3-3.3l102,0.3c33.9,0,68.1,0.3,102.3,0.6l102.6,0.9L514.2,749.9L514.2,749.9z M514.8,750.5l-102,1.2l-102.6,0.9
							c-34.2,0.3-68.7,0.6-103.2,0.6l-103.2,0.3h-3.3l0.3-3.3l5.1-64.5v0.3c-0.3-15.3,6.6-29.4,17.1-39.9
							c5.1-5.1,11.4-9.3,17.4-12.9c6-3.6,12.6-6.6,18.9-9.6c12.9-6,26.1-11.1,39-16.2c6.3-2.7,12.9-5.4,18.9-8.7
							c3-1.5,5.7-3.3,9-5.4c3-1.8,6-3.6,8.7-5.7c2.7-1.8,5.4-4.2,7.2-6.6c2.1-2.7,3.6-5.7,4.5-8.7c1.8-6.3,2.4-13.5,2.4-20.4
							c0-13.8-0.3-27.9-0.6-42l-1.8-84V425h0.9l61.2-0.3l61.2-0.6h1.8v1.8c-0.3,27.9-0.6,56.1-1.2,84c-0.3,14.1-0.6,28.2-0.6,42
							c0.3,6.9,0.6,13.8,2.4,20.1c0.9,3.3,2.4,6,4.2,8.7c1.8,2.4,4.2,4.8,7.2,6.6c2.7,1.8,5.7,3.9,8.7,5.7c3,2.1,5.7,3.9,8.7,5.4
							c6,3.3,12.3,6.3,18.9,9c12.9,5.4,25.8,10.8,38.7,16.8c6.3,3,12.6,6.3,18.6,9.9s12,7.8,17.1,12.9c10.2,10.2,16.8,24.3,16.2,39
							v-0.3L514.8,750.5L514.8,750.5z M176.4,749.3l5.7-41.4l0.3,41.4H176.4z M442.2,749.3l-5.7-41.4l-0.3,41.4H442.2z"/>
					</g>
					<path id="SvgjsPath6834_00000113353592999195941090000006926143207915923093_" class="st8" d="M438.6,751.7l0.3-10.8l80.4-7.8
						c0,0-3.6-49.5-5.7-60s-6.9-25.8-36.3-42s-83.1-37.2-83.1-37.2c-94.8,91.5-168-0.3-170.1,0c0,0-53.7,21-83.1,37.2
						s-34.2,31.5-36.3,42c-2.1,10.5-5.7,60-5.7,60l80.4,7.8v10.8H438.6L438.6,751.7z"/>
					<path id="SvgjsPath6835_00000004537012415766252870000014380575740925300113_" class="st9" d="M521.1,733.1
						c-1.2-17.4-2.1-34.8-3.9-52.2c-0.9-8.7-2.7-18-7.8-25.8c-4.8-7.8-11.7-13.8-19.2-18.9c-7.2-5.1-15.3-9.3-23.1-13.2
						c-7.8-3.9-15.9-7.5-23.7-11.1c-15.9-7.2-32.1-13.5-48.6-19.8c-0.6-0.3-1.5,0-2.1,0.3c-11.4,11.4-24,21.3-38.1,28.8
						s-29.7,12-45.6,12.3c-8.1,0-15.9-0.9-23.7-2.7c-7.8-2.1-15.3-5.1-22.2-8.7c-6.9-3.6-13.8-8.1-20.1-12.9
						c-3.3-2.4-6.3-5.1-9.3-7.8c-1.5-1.2-3-2.7-4.2-4.2l-2.1-2.1l-1.2-1.2l-0.6-0.6l-0.3-0.3l-0.3-0.3c0,0-0.6-0.3-0.9-0.3h-0.3
						c-16.2,6.3-32.4,12.6-48.6,19.5c-8.1,3.3-15.9,6.9-24,10.8c-7.8,3.9-15.6,7.8-23.1,12.9c-7.2,5.1-14.4,11.1-19.2,18.9
						c-5.1,7.8-7.2,17.1-8.1,25.8c-2.1,17.4-3.3,34.8-4.8,52.2c0,1.5,1.2,3,2.7,3.3l40.2,3.9l37.5,3.6v8.1c0,1.8,1.5,3,3,3
						c21.9,0,43.5,0,65.4-0.3l65.1-0.6l129-1.8l0.6-10.5l39.6-3l40.2-3.3C520.5,734.9,521.1,734,521.1,733.1L521.1,733.1z
						 M478.8,735.5l-40.2,4.8c-0.3,0-0.6,0.3-0.6,0.6l0.3,10.8l-130.2-1.8l-64.5-0.6c-20.4-0.3-40.8-0.3-61.2-0.3v-7.8
						c0-1.5-1.2-3-2.7-3l-40.2-4.5l-37.5-3.3c1.2-16.2,2.4-32.7,3.9-48.9c0.9-8.7,2.7-16.8,6.9-23.7c4.5-6.9,10.8-12.6,17.7-17.7
						c6.9-4.8,14.4-9,22.2-12.9s15.6-7.8,23.4-11.4c15.6-7.2,31.5-13.8,47.4-20.4l0.6,0.3l1.2,0.9l2.1,2.1c1.5,1.5,3,2.7,4.5,4.2
						c3,2.7,6.3,5.4,9.3,7.8c6.6,4.8,13.2,9.3,20.4,13.2c14.4,7.5,30.6,11.7,46.8,11.7c16.2,0,32.4-4.5,47.1-11.7
						c14.1-7.2,27-16.8,38.4-27.6c15.6,6.3,31.2,13.2,46.8,20.1c7.8,3.6,15.9,7.2,23.4,11.1c7.8,3.9,15.3,7.8,22.2,12.6
						c6.9,4.8,13.5,10.5,18,17.4s6.6,15,7.2,23.7c0.9,8.7,1.8,17.4,2.7,25.8l2.1,24.3L478.8,735.5L478.8,735.5z M177.3,713.6
						l-0.9-3.3l-1.2-3c-2.7-8.4-6.9-16.2-11.4-23.7c-4.8-7.5-10.2-14.4-16.5-20.4s-13.2-11.7-21-15.3c3.6,2.4,6.9,5.1,10.2,7.8
						s6.3,5.7,9.3,9c5.7,6.3,11.1,13.2,15.6,20.4c1.2,1.8,2.1,3.6,3.3,5.4c1.2,1.8,2.1,3.6,3,5.7c0.9,1.8,2.1,3.9,3,5.7
						c0.9,2.1,1.8,3.9,2.7,6l1.2,3l1.2,3l2.1,6c1.5,4.2,2.4,8.4,3.9,12.3c-0.9-4.2-1.5-8.7-2.7-12.9L177.3,713.6L177.3,713.6z
						 M456,683.9c-4.5,7.5-8.7,15.3-11.4,23.7l-1.2,3l-0.9,3.3l-1.8,6.3c-0.9,4.2-1.8,8.4-2.7,12.9c1.5-4.2,2.4-8.4,3.9-12.3l2.1-6
						l1.2-3l1.2-3c0.9-1.8,1.8-3.9,2.7-6c0.9-1.8,1.8-3.9,3-5.7c0.9-1.8,1.8-3.9,3-5.7s2.1-3.6,3.3-5.4c4.5-7.2,9.9-14.1,15.6-20.4
						c2.7-3.3,6-6.3,9.3-9c3.3-3,6.6-5.7,10.2-7.8c-7.8,3.9-14.7,9.3-21,15.3C466.2,669.5,460.8,676.7,456,683.9L456,683.9z"/>
					<g id="svga-group-head_00000155847646768165745180000017241576238991033754_" transform="matrix(1,0,0,1,0,0)">
						<g id="svga-group-ears-left-move_00000163783072608868442480000010831269413995429813_" transform="matrix(1,0,0,1,0,0)">
							<g id="svga-group-ears-left_00000124880699039961975310000011853039684935965875_">
								<path id="SvgjsPath6651_00000103953820266356301950000003555219797929436085_" class="st4" d="M201,372.8
									c0,0-6.9-6.6-15-9.9s-17.1,2.1-19.8,10.2s3.6,42,14.1,54.3s17.4,13.2,24.3,6.9C211.5,428.3,223.8,404.6,201,372.8L201,372.8
									z"/>
								<path id="SvgjsPath6652_00000116209879097473055150000005410247586555282349_" class="st10" d="M204.6,377.6
									c1.2,1.8,2.1,3.6,3.3,5.4s2.1,3.9,3,5.7c0.9,2.1,1.8,3.9,2.4,6c0.6,2.1,1.5,4.2,1.8,6.6c0.3,1.2,0.3,2.4,0.6,3.3l0.3,3.6
									c0,4.8-0.6,9.3-1.8,13.8c-1.5,4.5-3.3,8.4-6.3,11.7c-0.6,0.9-1.5,1.5-2.1,2.4c-0.9,0.6-1.5,1.2-2.4,1.8
									c-1.8,1.2-3.6,2.1-5.7,2.1c-2.1,0.3-4.2,0-6-0.9s-3.6-2.1-5.1-3.3c-1.5-1.2-3-2.7-4.5-4.5c-1.5-1.5-2.7-3.3-3.9-5.1
									c-4.5-7.5-7.2-15.9-9.6-24.3c-1.2-4.2-2.1-8.4-3-12.9s-1.5-8.7-1.2-13.5c0-1.2,0.3-2.4,0.6-3.9c0.3-0.6,0.3-1.2,0.6-1.8
									l0.9-1.5c1.2-2.1,2.7-3.6,4.2-5.1c3.3-2.7,7.2-3.9,11.1-3.3c1.8,0.3,3.9,0.9,5.4,1.8c1.8,0.9,3.3,1.8,5.1,3
									c3.3,2.1,6.3,4.5,9.3,7.2L204.6,377.6z M191.4,366.2c-1.8-0.9-3.3-1.5-5.1-2.1s-3.3-0.9-5.1-0.9c-3.3,0.3-6.6,1.5-9.3,3.9
									c-1.2,1.2-2.4,2.4-3.3,4.2c-0.3,0.9-0.9,1.5-1.2,2.4s-0.6,1.5-0.6,2.7c-0.6,3.9-0.3,8.4,0.3,12.6s1.2,8.7,2.1,12.9
									c2.1,8.4,5.1,16.8,9.9,23.1c2.4,3,5.4,5.7,8.1,8.1c3,2.1,6.3,3.6,9.3,3c1.5-0.3,3-0.9,4.5-1.8s2.7-2.1,3.9-3.6
									c2.1-3,4.2-6.3,5.1-10.2c1.2-3.9,1.8-7.8,2.1-12c0-4.2-0.3-8.4-1.2-12.6c-1.8-8.4-5.4-16.2-10.2-22.8
									C198,370.1,194.7,368,191.4,366.2L191.4,366.2z"/>
								<path id="SvgjsPath6653_00000075137782023523879330000016754609335833750409_" class="st6" d="M176.7,371.6
									c9,1.5,15,17.1,16.8,27.6c0.3,0.3,0.3,0.6,0.6,0.9c0.9,1.5-1.2,3.3-2.1,1.8c-1.2-2.1-3-4.5-5.1-5.4c-3.9-1.5-6,3-5.1,7.5
									c1.2,5.1,4.5,8.4,7.5,12.3c0.3,0.3,0,0.9-0.3,0.6c-4.8-3-12-13.5-8.7-20.1c2.4-4.8,6.3-3.9,9.6-1.2c-2.1-6-3.9-12-8.4-16.5
									c-1.5-1.5-4.2-3.9-6.3-3.6c-3.6,0.6-3.6,6-3.9,9.3c-0.3,4.5,0.3,9.3,0.9,14.1c0,0.6-0.6,0.6-0.6,0.3
									C169.8,392,166.2,369.8,176.7,371.6L176.7,371.6z"/>
							</g>
						</g>
						<g id="svga-group-ears-right-move_00000051373301448486426740000006607422657241548170_" transform="matrix(1,0,0,1,0,0)">
							<g id="svga-group-ears-right_00000042695709704234565260000015005783889864725380_">
								<path id="SvgjsPath6654_00000132803769240292701310000009328322023838528136_" class="st4" d="M417,372.8
									c0,0,6.9-6.6,15-9.9s17.1,2.1,19.8,10.2s-3.6,42-14.1,54.3s-17.4,13.2-24.3,6.9C406.5,428.3,394.2,404.6,417,372.8z"/>
								<path id="SvgjsPath6655_00000150077858416181306140000012342897958354673542_" class="st10" d="M417,372.5
									c3-2.7,6-5.1,9.3-7.2c1.5-1.2,3.3-2.1,5.1-3c1.8-0.9,3.6-1.5,5.4-1.8c3.9-0.3,7.8,0.6,11.1,3.3c1.5,1.2,3,3,4.2,5.1l0.9,1.5
									c0.3,0.6,0.3,1.2,0.6,1.8c0.3,1.2,0.6,2.7,0.6,3.9c0.3,4.8-0.6,9.3-1.2,13.5c-0.9,4.5-1.8,8.7-3,12.9
									c-2.4,8.4-5.1,16.8-9.6,24.3c-1.2,1.8-2.4,3.3-3.9,5.1c-1.2,1.5-2.7,3-4.5,4.5c-1.5,1.2-3.3,2.4-5.1,3.3
									c-1.8,0.9-3.9,1.2-6,0.9c-2.1-0.3-3.9-1.2-5.7-2.1c-0.9-0.6-1.8-1.2-2.4-1.8c-0.9-0.6-1.5-1.5-2.1-2.4
									c-2.7-3.3-4.8-7.5-6.3-11.7c-1.2-4.5-2.1-9-1.8-13.8l0.3-3.6c0-1.2,0.3-2.4,0.6-3.3c0.3-2.4,1.2-4.5,1.8-6.6
									c0.9-2.1,1.5-4.2,2.4-6s1.8-3.9,3-5.7c1.2-1.8,2.1-3.6,3.3-5.4L417,372.5L417,372.5z M417,372.8
									c-4.8,6.6-8.4,14.7-10.2,22.8c-0.9,4.2-1.2,8.4-1.2,12.6s0.6,8.1,2.1,12c1.2,3.9,3,7.2,5.1,10.2c1.2,1.5,2.4,2.7,3.9,3.6
									s2.7,1.8,4.5,1.8c3,0.6,6.3-0.9,9.3-3c3-2.4,5.7-5.1,8.1-8.1c4.8-6.3,7.8-14.7,9.9-23.1c1.2-4.2,1.8-8.4,2.1-12.9
									c0.6-4.2,0.6-8.7,0.3-12.6c0-0.9-0.3-1.8-0.6-2.7c-0.3-0.9-0.6-1.8-1.2-2.4c-0.9-1.5-2.1-3-3.3-4.2
									c-2.7-2.1-5.7-3.6-9.3-3.9c-1.8,0-3.3,0.3-5.1,0.9c-1.8,0.6-3.3,1.2-5.1,2.1C423.3,368,420,370.1,417,372.8L417,372.8z"/>
								<path id="SvgjsPath6656_00000080177415679254179780000002084672035333069463_" class="st6" d="M441.3,371.6
									c-9,1.5-15,17.1-16.8,27.6c-0.3,0.3-0.3,0.6-0.6,0.9c-0.9,1.5,1.2,3.3,2.1,1.8c1.2-2.1,3-4.5,5.1-5.4c3.9-1.5,6,3,5.1,7.5
									c-1.2,5.1-4.5,8.4-7.5,12.3c-0.3,0.3,0,0.9,0.3,0.6c4.8-3,12-13.5,8.7-20.1c-2.4-4.8-6.3-3.9-9.6-1.2c2.1-6,3.9-12,8.4-16.5
									c1.5-1.5,4.2-3.9,6.3-3.6c3.6,0.6,3.6,6,3.9,9.3c0.3,4.5-0.3,9.3-0.9,14.1c0,0.6,0.6,0.6,0.6,0.3
									C448.2,392,451.8,369.8,441.3,371.6L441.3,371.6z"/>
							</g>
						</g>
						<g id="svga-group-faceshape-wrap_00000127030644465984617970000015400137362900773055_">
							<g id="svga-group-faceshape-single_00000001622036532742828830000011875065822524547518_">
								<path id="SvgjsPath6683_00000063616290058415024140000008928375920125919118_" class="st4" d="M432,356.9
									c0,90.9-56.7,195.6-123,195.6S186,447.8,186,356.9s56.7-141,123-141S432,265.7,432,356.9L432,356.9z"/>
								<path id="SvgjsPath6684_00000111887450843481315900000009282313416281926278_" class="st7" d="M309,215.6
									c-66.3,0-123.3,50.1-123.3,141s57,196.5,123.3,196.5s123.3-105.6,123.3-196.5S375.3,215.6,309,215.6L309,215.6z
									 M393.6,256.4l2.4,2.4c0.9,0.9,1.5,1.8,2.4,2.7c0.9,0.9,1.5,1.8,2.4,2.7l2.1,2.7c0.6,0.9,1.5,1.8,2.1,2.7l2.1,3l0.9,1.5
									l0.9,1.5c1.2,2.1,2.7,3.9,3.6,6l1.8,3c0.6,0.9,1.2,2.1,1.5,3l1.5,3.3l1.5,3.3c0.6,1.2,0.9,2.1,1.5,3.3l1.2,3.3
									c6.9,17.7,9.6,37.2,9.9,56.1c0,19.2-2.7,38.4-7.8,56.7c-2.4,9.3-5.7,18.3-9.3,27c-3.6,8.7-7.5,17.4-12,25.8
									s-9.3,16.5-14.4,24.3c-2.7,3.9-5.4,7.8-8.1,11.4s-5.7,7.2-9,10.8c-6,6.9-12.9,13.2-20.1,18.9c-7.2,5.4-15,9.9-23.4,12.9
									c-4.2,1.5-8.4,2.7-12.9,3c-4.5,0.6-8.7,0.6-13.2,0.3c-9-0.6-17.7-3.6-25.8-7.8s-15.9-9.9-22.8-16.2
									c-6.9-6.3-13.2-13.5-18.9-21.3s-10.8-15.9-15-24.3c-4.5-8.4-8.4-17.1-11.7-26.1c-1.8-4.5-3.3-9-4.8-13.5s-2.7-9-3.9-13.8
									c-2.4-9.3-4.2-18.6-5.4-27.9s-2.1-18.9-2.4-28.2c0-4.8,0-9.3,0.3-14.1c0-2.4,0.3-4.8,0.3-6.9l0.6-6.9
									c0.9-9.3,2.7-18.6,5.1-27.3c2.4-9,5.4-17.7,9.6-25.8c0.6-1.2,0.9-2.1,1.5-3l1.5-3c1.2-2.1,2.4-3.9,3.6-6
									c1.2-1.8,2.4-3.9,3.9-5.7l2.1-2.7l0.9-1.5l1.2-1.2c5.7-7.2,12.3-13.5,19.5-18.9s15-9.9,23.4-13.5s17.1-6,25.8-7.5
									c2.1-0.6,4.5-0.6,6.6-0.9c1.2-0.3,2.4-0.3,3.3-0.3l3.3-0.3c2.4,0,4.5-0.3,6.9-0.3h6.9l3.3,0.3c1.2,0,2.4,0.3,3.3,0.3
									c1.2,0,2.4,0.3,3.3,0.3l3.3,0.6l1.8,0.3l1.8,0.3l3.3,0.6c1.2,0.3,2.1,0.6,3.3,0.9c1.2,0.3,2.1,0.6,3.3,0.9
									c4.2,1.2,8.7,2.7,12.9,4.5c4.2,1.8,8.4,3.6,12.3,6c8.1,4.5,15.6,9.9,22.2,16.2l1.2,1.2L393.6,256.4L393.6,256.4z"/>
							</g>
						</g>
						<g id="svga-group-mouth-single-move_00000125604535510880653380000013690625835015649196_" transform="matrix(1,0,0,1,0,0)">
							<g id="svga-group-mouth-single_00000133495007175053056810000017427252368342333602_">
								<path id="SvgjsPath6639_00000093149041160979966870000001863924300017465251_" class="st11" d="M269.7,486.5
									c0,0,6-1.5,11.1-6.9c5.4-5.4,6.9-6.6,9.6-7.8c3-1.2,9.6-3,14.7,1.2c4.8,3.9,6,1.5,8.1,0s6-4.2,12.6-1.8
									c6.6,2.4,12.9,10.2,16.8,12.3c3.9,2.1,6.6,2.7,6.6,2.7s-5.1,7.2-9.3,11.4c-5.7,6-12.9,8.1-25.8,9s-21.6-1.5-27-5.1
									c-5.7-3.6-10.5-9.6-11.7-10.8C273.9,489.2,269.7,486.5,269.7,486.5L269.7,486.5z"/>
								<path id="SvgjsPath6640_00000035514992498476446070000010272724435655885727_" class="st12" d="M267.6,486.5
									c5.4,2.7,10.8,2.4,16.5,1.2c4.2-0.9,8.7-1.8,12.9-1.5s8.1,2.4,12.6,2.7c3.3,0,6-1.2,9-2.1c5.7-1.8,10.5-0.9,16.2,0.3
									c5.7,1.2,12,3,17.1-0.6c0.9-0.6,0.3-1.8-0.6-1.8c-8.1,1.5-14.1-0.6-22.2-1.8c-7.2-1.2-13.2,3.3-20.4,2.4
									c-6-0.6-10.5-3-16.5-2.1c-8.1,0.9-15.6,4.2-23.7,1.2C267.3,484.4,266.7,486.2,267.6,486.5L267.6,486.5z"/>
								<path id="SvgjsPath6641_00000154398940547879356330000000129899330657753783_" class="st13" d="M338.4,491.6
									c-13.2,0.9-25.8,5.4-39,4.8c-0.6,0-0.9,0.9-0.3,1.2c12.9,3.3,28.8,4.2,39.6-5.4C339,491.9,338.7,491.6,338.4,491.6z"/>
							</g>
						</g>
						<g id="svga-group-eyes-left-move_00000076599232821037563350000001044755040754627471_" transform="matrix(1,0,0,1,0,0)">
							<g id="svga-group-eyes-left_00000111179450473880575610000017916585550142245010_">
								<g id="svga-group-eyesback-left_00000119080339212707060590000013840297034906096018_">
									<path id="SvgjsPath6756_00000041989974869900055460000001714867609228937867_" class="st14" d="M281.7,395.6
										c0,0-0.9-7.5-3-11.4s-11.1-13.2-21-15c-14.7-3-27.9,5.1-27.9,5.1s0,7.2,4.5,12.3c4.2,5.1,11.7,7.8,14.7,8.1
										c3,0.3,13.8,0.9,19.5,0c3.9-0.6,8.4-0.6,10.2,0C280.2,395.3,281.7,395.6,281.7,395.6L281.7,395.6z"/>
								</g>
								
									<g id="svga-group-eyesiriswrapper-left_00000114783923963844681620000013592124269865389465_" transform="matrix(1,0,0,1,0,0)">
									
										<g id="svga-group-eyesiriscontrol-left_00000123422862901655152000000015882472155824589206_" transform="matrix(1,0,0,1,0,0)">
										<g id="svga-group-eyesiris-left_00000098904702993553305220000005405910500304940440_">
											<path id="SvgjsPath6718_00000043433045857517660280000004065939268398911650_" class="st15" d="M255,366.2
												c8.1,0,14.7,6.6,14.7,14.7s-6.6,14.7-14.7,14.7s-14.7-6.6-14.7-14.7S246.9,366.2,255,366.2z"/>
											<path id="SvgjsPath6719_00000106869111569112867170000015670606000449912705_" class="st16" d="M255,373.1
												c4.2,0,7.8,3.6,7.8,7.8s-3.6,7.8-7.8,7.8s-7.8-3.6-7.8-7.8S250.8,373.1,255,373.1z"/>
											<path id="SvgjsPath6720_00000070823179761141338660000015120603290497975704_" class="st14" d="M252.9,374.6l-1.5-1.5
												c-0.6-0.6-1.2-0.9-2.1-0.9s-1.5,0.3-2.1,0.9s-0.9,1.2-0.9,2.1s0.3,1.5,0.9,2.1l1.5,1.5c0.6,0.6,1.2,0.9,2.1,0.9
												c0.6,0,1.5-0.3,2.1-0.9C254.1,377.3,254.1,375.8,252.9,374.6L252.9,374.6z M260.4,387.8c2.4,0,2.4-3.9,0-3.9
												S257.7,387.8,260.4,387.8z"/>
										</g>
									</g>
								</g>
								<g id="svga-group-eyesfront-left_00000023274580051951235720000004592938850367760526_">
									<path id="SvgjsPath6764_00000115507295795720618720000010407368008618694831_" class="st4" d="M221.2,385.8
										c0,20.7,14.8,37.5,33.1,37.5s33.1-16.8,33.1-37.5s-14.8-37.5-33.1-37.5S221.2,365.1,221.2,385.8L221.2,385.8z M229.8,374.5
										c0,0,13.3-8.1,28-5.2c9.9,1.9,18.6,11.2,20.9,15.1c2.2,3.8,3.1,11.5,3.1,11.5s-1.6-0.4-3.3-1c-1.7-0.5-6.1-0.6-10.2,0.1
										c-5.7,1-16.4,0.5-19.3,0.1c-3-0.4-10.5-3.2-14.8-8.2C229.9,381.7,229.8,374.5,229.8,374.5z"/>
									<path id="SvgjsPath6765_00000035510136498828155390000016024622795842340749_" class="st16" d="M228.8,375.6
										c-0.3,1.3-0.4,2.5-0.2,3.8c-1.7-0.1-3.6,0.1-4.8,1.3c-0.4,0.4,0,1,0.5,0.9c0.9-0.1,1.7-0.6,2.6-0.8
										c0.6-0.1,1.3-0.2,1.9-0.1c0.2,0.6,0.4,1.3,0.7,1.9c-0.5,0.2-1,0.4-1.5,0.6c-1.1,0.5-2.2,1.3-3,2.3
										c-0.3,0.5,0.3,0.8,0.7,0.7c1.1-0.5,2-1.1,3.1-1.6c0.5-0.2,1-0.4,1.5-0.5c0.5,0.8,1,1.6,1.7,2.4c-1.2,0.7-2.3,1.7-2.7,3.1
										c-0.1,0.3,0.3,0.6,0.6,0.5c1.1-0.7,2-1.7,2.9-2.6c3.3,3.7,8,6.5,11.8,7.7c5.6,1.9,11.8,2.2,17.7,1.9
										c5.5-0.3,14.2-3.4,19.3-0.6c0.2,0.1,0.4,0.1,0.5-0.1l0.1-0.1c0-0.1,0.1-0.1,0.1-0.2c0,0,0,0,0-0.1
										c-0.3-12.2-7.9-22.5-19.2-26.9c-6.2-2.5-13.1-3.1-19.7-2.1c-7.8,1.2-14.6,5-22.6,4.3c-0.7-0.1-1,0.9-0.5,1.3
										C222.8,375,225.7,375.8,228.8,375.6L228.8,375.6z M230.8,375.4c6-1,12.3-4.6,18.3-5c15.4-1.1,30.1,9,32.1,24.7
										c-7.2-2.5-15.4-0.3-22.8-0.4c-6-0.1-12.4-1-17.7-4C234.1,386.8,232.9,381.8,230.8,375.4z"/>
								</g>
							</g>
						</g>
						<g id="svga-group-eyes-right-move_00000150088016777440812470000002023069155388613808_" transform="matrix(1,0,0,1,0,0)">
							<g id="svga-group-eyes-right_00000041290021721199673890000011561234292022501296_">
								<g id="svga-group-eyesback-right_00000021106462496195866920000000722151036801295039_">
									<path id="SvgjsPath6757_00000011722012091701109760000008062244981834440633_" class="st14" d="M336.3,395.6
										c0,0,0.9-7.5,3-11.4s11.1-13.2,21-15c14.7-3,27.9,5.1,27.9,5.1s0,7.2-4.5,12.3c-4.2,5.1-11.7,7.8-14.7,8.1
										c-3,0.3-13.8,0.9-19.5,0c-3.9-0.6-8.4-0.6-10.2,0C337.8,395.3,336.3,395.6,336.3,395.6L336.3,395.6z"/>
								</g>
								
									<g id="svga-group-eyesiriswrapper-right_00000017477011301152359050000001537758745663974842_" transform="matrix(1,0,0,1,0,0)">
									
										<g id="svga-group-eyesiriscontrol-right_00000072266323548817689480000002720691793393474976_" transform="matrix(1,0,0,1,0,0)">
										<g id="svga-group-eyesiris-right_00000055676254671574349370000007560063907019972768_">
											<path id="SvgjsPath6721_00000147906199852151517910000002418374123839958716_" class="st15" d="M363,366.2
												c8.1,0,14.7,6.6,14.7,14.7s-6.6,14.7-14.7,14.7s-14.7-6.6-14.7-14.7S354.9,366.2,363,366.2z"/>
											<path id="SvgjsPath6722_00000101090766019910026120000002255825796968684962_" class="st16" d="M363,373.1
												c4.2,0,7.8,3.6,7.8,7.8s-3.6,7.8-7.8,7.8s-7.8-3.6-7.8-7.8S358.8,373.1,363,373.1z"/>
											<path id="SvgjsPath6723_00000150079385236358423660000018090504086201132934_" class="st14" d="M361.2,374.6l-1.5-1.5
												c-0.6-0.6-1.2-0.9-2.1-0.9s-1.5,0.3-2.1,0.9s-0.9,1.2-0.9,2.1s0.3,1.5,0.9,2.1l1.5,1.5c0.6,0.6,1.2,0.9,2.1,0.9
												c0.6,0,1.5-0.3,2.1-0.9C362.1,377.3,362.4,375.8,361.2,374.6L361.2,374.6z M368.4,387.8c2.4,0,2.4-3.9,0-3.9
												S366,387.8,368.4,387.8z"/>
										</g>
									</g>
								</g>
								<g id="svga-group-eyesfront-right_00000145035246307407506160000001265398857466354088_">
									<path id="SvgjsPath6766_00000181079017441988290160000007830741941623241370_" class="st4" d="M363.8,348.3
										c-18.2,0-33.1,16.8-33.1,37.5s14.8,37.5,33.1,37.5s33.1-16.8,33.1-37.5S382,348.3,363.8,348.3L363.8,348.3z M383.8,386.8
										c-4.3,5-11.8,7.8-14.8,8.2c-3,0.4-13.7,0.9-19.3-0.1c-4-0.7-8.5-0.6-10.2-0.1s-3.3,1-3.3,1s0.9-7.6,3.1-11.5
										c2.2-3.8,11-13.1,20.8-15.1c14.8-2.9,28,5.2,28,5.2S388.1,381.7,383.8,386.8L383.8,386.8z"/>
									<path id="SvgjsPath6769_00000141443733152687609560000005937714996473873577_" class="st16" d="M397.9,372.4
										c0.5-0.5,0.1-1.4-0.5-1.3c-8,0.7-14.9-3.2-22.6-4.3c-6.6-1-13.5-0.4-19.7,2.1c-11.3,4.4-18.9,14.7-19.2,26.9v0.1
										c0,0.1,0,0.1,0.1,0.2l0.1,0.1c0.1,0.1,0.3,0.2,0.5,0.1c5.1-2.8,13.7,0.3,19.3,0.6c5.9,0.3,12.1,0,17.7-1.9
										c3.8-1.2,8.4-4,11.8-7.7c0.9,0.9,1.8,1.9,2.9,2.6c0.3,0.2,0.7-0.1,0.6-0.4c-0.4-1.4-1.5-2.4-2.7-3.1
										c0.6-0.8,1.2-1.6,1.7-2.4c0.5,0.2,1,0.3,1.5,0.5c1,0.5,2,1.2,3.1,1.6c0.4,0.2,1-0.2,0.7-0.7c-0.8-1-1.8-1.8-3-2.3
										c-0.5-0.2-1-0.5-1.5-0.6c0.3-0.6,0.5-1.3,0.7-1.9c0.6,0,1.3,0,1.9,0.2c0.9,0.2,1.7,0.6,2.6,0.8c0.5,0.1,0.9-0.5,0.5-0.9
										c-1.1-1.2-3.1-1.4-4.8-1.3c0.2-1.2,0.1-2.5-0.2-3.8C392.2,375.8,395.2,375,397.9,372.4L397.9,372.4z M377.3,390.6
										c-5.3,3.1-11.7,3.9-17.7,4c-7.4,0.1-15.6-2-22.8,0.4c2-15.7,16.7-25.8,32.1-24.7c5.9,0.4,12.3,4.1,18.3,5
										C385.1,381.8,383.9,386.8,377.3,390.6z"/>
								</g>
							</g>
						</g>
						<g id="svga-group-facehighlight-single_00000026880463389298714120000011884456932392873643_">
						</g>
						<g id="svga-group-eyebrows-left-move_00000103982894674790355680000009565592245921858442_" transform="matrix(1,0,0,1,0,0)">
							
								<g id="svga-group-eyebrows-left-rotate_00000117654329242093454280000017471522053960376730_" transform="matrix(1,0,0,1,0,0)">
								<g id="svga-group-eyebrows-left_00000118362834372084341190000004717972247927540864_">
									<path id="SvgjsPath6810_00000015336587704500550760000008652069757335431849_" class="st17" d="M215.4,349.7
										C215.4,349.7,215.7,349.7,215.4,349.7c0.3-0.3,0.3-0.3,0.3-0.6c0.9-1.8,2.7-3,4.2-3.9c1.8-1.2,3.9-2.7,5.7-3.9h0.3
										c4.5-3.3,12-3.9,18-2.4c5.7,0.6,11.4,2.4,15,3.9c0.3,0,0.6,0.3,1.2,0.3c4.8,0.9,9.9,1.8,14.4,3.6c4.5,0.9,9,1.5,13.2,3h0.3
										c0.3-0.3,1.2,0,1.2,0.6c0.3,0.6,0.3,1.2,0,2.1c0.6,0,0.9,0.3,0.9,0.9c-0.3,1.5-0.9,2.7-1.8,3.9v0.3c-0.9,2.4-2.7,3.3-5.4,3
										c-0.3,0-0.6,0-1.2-0.3c-0.3,0.3-0.6,0.3-0.9,0.3c-4.8-0.3-9.6-2.4-13.8-4.2c-2.7-1.2-5.7-2.4-8.4-3.9
										c-4.2-0.6-8.4-1.8-12.6-2.7c-3.9-0.9-8.4-0.9-12-2.4c-1.2,0.3-2.7,0.3-3.9,0.6c-0.9,0.3-1.8,0.6-3,0.6
										c-3,0.9-6.6,2.4-9.6,2.7h-0.3c-0.3,0-0.3,0.3-0.6,0.3c-0.6,0.6-1.2,1.2-2.1,1.5c-0.3,0-0.9-0.3-0.9-0.6
										C213.6,350.9,214.5,350.3,215.4,349.7L215.4,349.7z"/>
									<path id="SvgjsPath6811_00000150098255890414585030000008788083445485496252_" class="st18" d="M278.7,347.9
										c3.9,2.4,4.5,8.4,3.9,12.6c0,0.9-1.5,0.9-1.8,0c-0.6-2.1-0.6-4.2-0.9-6.3c-0.6-1.8-1.2-3.3-2.1-5.1
										C277.5,348.2,278.1,347.3,278.7,347.9L278.7,347.9z M269.1,345.2c6.3,1.2,10.2,8.7,10.8,14.4c0,0.6-0.9,0.6-0.9,0.3
										c-0.6-3-1.8-5.7-3.6-8.1c-1.8-2.4-4.2-3.9-6.6-6C268.5,345.5,268.8,344.9,269.1,345.2L269.1,345.2z M252,341
										c2.7,0.6,5.7,3,7.8,5.1c2.1,2.1,3.9,4.5,4.5,7.2c0,0.6-0.6,0.9-0.9,0.6c-1.5-2.4-2.7-4.8-5.1-6.6c-2.1-1.8-4.8-3-6.6-5.4
										C251.4,341.3,251.4,341,252,341L252,341z M237.9,337.7c6.9,0,14.1,6.3,16.2,12.6c0.3,0.6-0.6,0.9-0.9,0.3
										c-1.8-2.7-3.6-5.4-6.3-7.5s-5.7-3-9-4.2C237,338.6,237,337.7,237.9,337.7L237.9,337.7z M221.1,344.9
										c6.3-8.1,18.6-5.4,23.7,2.4c0.3,0.6-0.6,1.2-0.9,0.6c-3-2.7-6.3-5.7-10.5-6c-4.5-0.6-8.1,2.4-11.7,3.9
										C220.8,346.1,220.8,345.2,221.1,344.9z"/>
									<path id="SvgjsPath6812_00000031917951503002615830000008325221333855921578_" class="st3" d="M285.3,362.6
										c4.8-1.2,6-6.6,6-11.1c0-0.9-1.2-0.9-1.5-0.3c-0.6,1.8-1.2,3.9-2.1,5.4s-2.1,2.4-3.3,3c1.2-3.6,0.6-7.8-1.8-11.1
										c1.8,0.3,3.3,0.9,5.1,1.2c0.6,0,0.9-0.6,0.3-0.9c-8.1-3-16.8-4.8-24.9-7.2c-7.2-2.1-14.7-4.2-21.9-5.1
										c-13.8-1.8-22.8,7.2-30.9,17.1c-0.3,0.3-0.6,0.6-0.9,0.6c-1.2,0.9,0,2.7,1.2,1.8c7.5-4.5,15-7.2,23.7-7.2
										c9.3,0.3,18.6,3.3,27.6,6.3c4.8,1.8,9.3,3.6,13.8,5.4C278.7,362.3,282,363.5,285.3,362.6L285.3,362.6z M225.3,342.2
										c3-2.1,6.3-3,9.3-3.3c2.4,1.2,4.8,2.4,6.9,4.2c1.5,1.5,2.7,3.3,3.9,4.8c-0.3,0-0.6-0.3-1.2-0.3c-10.2-2.1-19.8-1.2-28.5,3
										C218.7,347.6,221.7,344.6,225.3,342.2z M283.2,360.2c-1.5,0-3.3-0.3-5.1-0.9c-3.6-1.2-7.2-3-10.8-4.5
										c-0.6-0.3-1.2-0.3-1.8-0.6c0-2.7-0.9-5.4-2.7-7.2c-0.3-0.3-0.9,0-0.6,0.6c0.9,2.1,2.1,4.2,2.7,6.3
										c-2.4-0.9-4.5-1.8-6.9-2.4c-2.1-4.5-6.3-9.3-10.8-11.4c-0.6-0.3-0.9,0.6-0.6,0.9c1.8,1.8,3.9,3,5.7,5.1
										c1.5,1.5,2.7,3.3,3.9,5.1c-3-0.9-5.7-1.8-8.7-2.4c-0.6-2.4-2.7-4.8-4.5-6.3c-1.2-1.2-3-2.4-4.5-3.3c2.7,0,5.7,0.3,8.4,0.9
										c11.4,2.4,22.8,5.7,34.2,8.4C283.5,352.1,284.1,356,283.2,360.2L283.2,360.2z"/>
								</g>
							</g>
						</g>
						
							<g id="svga-group-eyebrows-right-move_00000064350051735416205720000001905114396123003795_" transform="matrix(1,0,0,1,0,0)">
							
								<g id="svga-group-eyebrows-right-rotate_00000036950286423415558400000009574038795889003680_" transform="matrix(1,0,0,1,0,0)">
								<g id="svga-group-eyebrows-right_00000037666317440464856230000008121622703205327245_">
									<path id="SvgjsPath6813_00000061472320232486589850000015041038801314522551_" class="st17" d="M402.6,349.7
										C402.6,349.7,402.3,349.7,402.6,349.7c-0.3-0.3-0.3-0.3-0.3-0.6c-0.9-1.8-2.7-3-4.2-3.9c-1.8-1.2-3.9-2.7-5.7-3.9h-0.3
										c-4.5-3.3-12-3.9-18-2.4c-5.7,0.6-11.4,2.4-15,3.9c-0.3,0-0.6,0.3-1.2,0.3c-4.8,0.9-9.9,1.8-14.4,3.6
										c-4.5,0.9-9,1.5-13.2,3H330c-0.3-0.3-1.2,0-1.2,0.6c-0.3,0.6-0.3,1.2,0,2.1c-0.6,0-0.9,0.3-0.9,0.9
										c0.3,1.5,0.9,2.7,1.8,3.9v0.3c0.9,2.4,2.7,3.3,5.4,3c0.3,0,0.6,0,1.2-0.3c0.3,0.3,0.6,0.3,0.9,0.3
										c4.8-0.3,9.6-2.4,13.8-4.2c2.7-1.2,5.7-2.4,8.4-3.9c4.2-0.6,8.4-1.8,12.6-2.7c3.9-0.9,8.4-0.9,12-2.4
										c1.2,0.3,2.7,0.3,3.9,0.6c0.9,0.3,1.8,0.6,3,0.6c3,0.9,6.6,2.4,9.6,2.7h0.3c0.3,0,0.3,0.3,0.6,0.3c0.6,0.6,1.2,1.2,2.1,1.5
										c0.3,0,0.9-0.3,0.9-0.6C404.4,350.9,403.5,350.3,402.6,349.7L402.6,349.7z"/>
									<path id="SvgjsPath6814_00000181074658097762966740000015864071384666616231_" class="st18" d="M339.3,347.9
										c-3.9,2.4-4.5,8.4-3.9,12.6c0,0.9,1.5,0.9,1.8,0c0.6-2.1,0.6-4.2,0.9-6.3c0.6-1.8,1.2-3.3,2.1-5.1
										C340.5,348.2,339.9,347.3,339.3,347.9L339.3,347.9z M348.9,345.2c-6.3,1.2-10.2,8.7-10.8,14.4c0,0.6,0.9,0.6,0.9,0.3
										c0.6-3,1.8-5.7,3.6-8.1c1.8-2.4,4.2-3.9,6.6-6C349.5,345.5,349.2,344.9,348.9,345.2L348.9,345.2z M366,341
										c-2.7,0.6-5.7,3-7.8,5.1c-2.1,2.1-3.9,4.5-4.5,7.2c0,0.6,0.6,0.9,0.9,0.6c1.5-2.4,2.7-4.8,5.1-6.6c2.1-1.8,4.8-3,6.6-5.4
										C366.6,341.3,366.6,341,366,341L366,341z M380.1,337.7c-6.9,0-14.1,6.3-16.2,12.6c-0.3,0.6,0.6,0.9,0.9,0.3
										c1.8-2.7,3.6-5.4,6.3-7.5c2.7-2.1,5.7-3,9-4.2C381,338.6,381,337.7,380.1,337.7L380.1,337.7z M396.9,344.9
										c-6.3-8.1-18.6-5.4-23.7,2.4c-0.3,0.6,0.6,1.2,0.9,0.6c3-2.7,6.3-5.7,10.5-6c4.5-0.6,8.1,2.4,12,3.9
										C397.2,346.1,397.2,345.2,396.9,344.9z"/>
									<path id="SvgjsPath6815_00000072990597643105580440000002086954293063765166_" class="st3" d="M342.3,361.1
										c4.5-1.8,9.3-3.6,13.8-5.4c8.7-3,18.3-6.3,27.6-6.3c8.7-0.3,16.5,2.7,23.7,7.2c1.2,0.6,2.4-1.2,1.2-1.8
										c-0.3-0.3-0.6-0.6-1.2-0.6c-8.1-9.9-17.1-18.6-30.9-17.1c-7.5,0.9-14.7,3.3-21.9,5.1c-8.4,2.4-16.8,4.2-24.9,7.2
										c-0.6,0.3-0.3,0.9,0.3,0.9c1.8-0.3,3.3-0.6,5.1-1.2c-2.4,3-3,7.5-1.8,11.1c-1.2-0.3-2.4-1.2-3.3-3s-1.2-3.6-2.1-5.4
										c-0.3-0.6-1.5-0.6-1.5,0.3c0.3,4.2,1.5,9.6,6,11.1C336,363.5,339.3,362.3,342.3,361.1L342.3,361.1z M402,350.6
										c-9-4.2-18.6-5.1-28.5-3c-0.3,0-0.6,0.3-1.2,0.3c1.2-1.5,2.4-3.3,3.9-4.8c2.1-1.8,4.5-2.7,6.9-4.2c3.3,0.3,6.3,1.5,9.3,3.3
										C396.3,344.6,399.3,347.6,402,350.6z M337.2,348.5c11.4-2.7,22.8-6,34.2-8.4c3-0.6,5.7-0.9,8.4-0.9
										c-1.8,0.9-3.3,2.1-4.5,3.3c-1.8,1.5-3.9,3.9-4.5,6.3c-3,0.6-6,1.5-8.7,2.4c1.2-1.8,2.4-3.6,3.9-5.1
										c1.8-1.8,3.9-3.3,5.7-5.1c0.3-0.3,0-0.9-0.6-0.9c-4.5,1.8-8.7,6.6-10.8,11.4c-2.4,0.6-4.8,1.5-6.9,2.4
										c0.6-2.1,1.5-4.2,2.7-6.3c0.3-0.6-0.3-0.9-0.6-0.6c-1.8,1.8-2.7,4.8-2.7,7.2c-0.6,0.3-1.2,0.3-1.8,0.6
										c-3.6,1.5-7.2,3.3-10.8,4.5c-1.8,0.6-3.6,1.2-5.1,0.9C333.9,356,334.5,352.1,337.2,348.5L337.2,348.5z"/>
								</g>
							</g>
						</g>
						<g id="svga-group-nose-single-move_00000096773568272178320640000006722187788400640162_" transform="matrix(1,0,0,1,0,0)">
							<g id="svga-group-nose-single_00000082368961027993859480000002480180077421575814_">
								<path id="SvgjsPath6796_00000119811179307020432930000008148378996891491987_" class="st7" d="M302.2,365.8
									c-2.4,10-2.7,20.7-3.8,30.9c-1.1,10.9-3.2,22.2-3.1,33.2c0,0.9,1.4,1.1,1.6,0.2c2.2-10,2.5-20.7,3.5-30.9
									c1.1-10.9,3.1-22.2,2.8-33.2C303.2,365.4,302.3,365.2,302.2,365.8z"/>
								<path id="SvgjsPath6797_00000133519732239209255640000015013445736857993139_" class="st7" d="M293.1,424.1
									c-2.9,3.9-5.4,8.2-7.6,12.6c-1.4,2.9-3.1,6.2-2.2,9.5c1.5,5.4,8.4,7.1,12.8,4.5c1.3-0.8,0.7-2.8-0.8-2.8
									c-2.6,0-5.7,0.8-7.7-1.4c-2.5-2.7,0-7.5,1.1-10.2c1.7-4,3.7-7.8,5.2-11.8C294.2,423.9,293.4,423.7,293.1,424.1L293.1,424.1z
									"/>
								<path id="SvgjsPath6798_00000163761631565330959840000005730660251264868491_" class="st7" d="M292.7,446.3
									c8.1-0.6,9.6,9.6,17.3,9.8c6.6,0.2,7.1-9.7,13.4-9.4c0.7,0,1-1,0.4-1.3c-7.1-4.2-8.4,8.2-15,7.4c-3.9-0.5-6.6-6.2-10.1-7.8
									c-2.4-1.1-4.1-1-6.4,0C291.8,445.3,292.1,446.4,292.7,446.3L292.7,446.3z"/>
								<path id="SvgjsPath6799_00000160181327163364921550000002964556712005946501_" class="st7" d="M321.2,451
									c5.3,1.2,11.6-0.5,12.8-6.4c0.6-3-0.4-5.9-1.9-8.4c-2.5-4.1-5.8-7.6-8.2-11.9c-0.4-0.7-1.4-0.4-1.4,0.4
									c-0.3,4.8,3.2,8.1,5.8,11.8c2.3,3.4,4.3,8.1,0.4,11.4c-1.8,1.5-5.2,1.3-7.4,1.7C320.5,449.7,320.5,450.8,321.2,451
									L321.2,451z"/>
								<path id="SvgjsPath6800_00000178906578278245578290000011789615299687403453_" class="st19" d="M316,434.9
									c-1.2-2.1-4.2-2.4-5.9-0.8c-0.2,0.2-0.7,0.8-0.8,1c-0.2,0.2-0.6,0.8-0.6,0.8c-0.2,0.3-0.4,0.6-0.5,0.9l-0.3,0.8
									c0,0,0,0-0.1,0.1c-0.2,0.2-0.4,0.4-0.5,0.6c-0.5,0.5-1,1.1-1.4,1.7c-1.2,1.9-0.2,4,1.4,5.2c2.5,1.9,6.1,0.4,7.8-1.7
									C317,441.1,317.6,437.9,316,434.9z"/>
							</g>
						</g>
						<g id="svga-group-hair-front_00000023262251530102466700000000108876815005845694_">
							<path id="SvgjsPath6851_00000029028443586207280210000004909907896210923661_" class="st2" d="M438.3,329.6
								c-2.7,23.1-8.4,45-14.4,55.8c0,0-0.9-42.9-11.1-63.3s-40.2-43.8-43.8-60.9c0,0,4.5,9.9,11.4,14.1s30.9,22.8,36.6,29.1
								s15,21.9,18.9,24C436.2,328.7,437.4,329,438.3,329.6z M209.7,498.8c0,1.8-0.6,6.6-1.5,13.5c-2.1-19.8-6.3-41.7-6.3-41.7
								s-90.6,133.5-78.6,177.6s36.3,74.7,38.7,77.1s12,5.7,16.2,13.5c1.5,3,31.5-26.4,16.8-61.8c-14.4-35.4-17.7-59.4-5.7-78
								c2.1-3.3,3.9-6.9,5.7-10.5c-2.4,12.9-4.5,23.1-5.1,26.1c-2.7,10.5-2.7,25.5,4.5,42s18.3,17.4,18.3,17.4
								c-5.1-8.1-5.4-21.9-0.6-36.3s12.6-28.5,16.8-43.5c4.5-15.6,6.6-34.2-8.1-65.1C212.7,510.8,209.7,498.8,209.7,498.8
								L209.7,498.8z"/>
							<path id="SvgjsPath6852_00000110434806732591161380000002955196272818580159_" class="st17" d="M369,261.2
								c0,0-54.6,20.4-98.4,5.1s-72,45.3-68.4,81.3s28.2,83.1,13.8,141.3s-56.4,102.6-68.4,128.4c-12,25.8-12,52.2,0,71.1
								c12,18.9,18,32.4,21.3,52.2c0,0-4.5-10.8-22.2-24c-27.9-20.7-39.3-45.3-37.5-83.7s18.6-68.4,33.3-99.3
								c14.4-30.9,21.9-69.9,11.7-95.7c-10.2-25.8-21.9-61.5-17.7-125.1c4.2-63.3,39.3-97.2,83.1-123s107.1-21,147.3,3.9
								s34.2,47.1,34.2,47.1s12-6,30,21.3s6,100.2-6.9,123.3c0,0-0.9-42.9-11.1-63.3C402.9,301.7,372.6,278.3,369,261.2z"/>
							<path id="SvgjsPath6853_00000119822474174274337130000012667063502966778498_" class="st2" d="M391.8,242.3
								c-6.9,4.5-14.1,4.5-18.3,2.4c-12.3-5.4-22.2-24-32.4-35.1c-17.1-18.6-21.6-28.2-60.9-30.3c-27.9-1.5-50.1,5.7-63,11.4
								c-42.6,25.5-76.5,59.4-80.7,121.8c-4.2,63.3,7.2,99.3,17.7,125.1s2.7,64.8-11.7,95.7c-14.4,30.9-31.5,60.9-33.3,99.3
								s9.9,63,37.5,83.7c17.7,13.2,22.2,24,22.2,24c-4.8-13.5-12-18.9-26.1-31.8c-14.4-12.9-28.2-49.2-25.2-76.8s29.1-75,41.4-94.2
								c12.3-19.2,22.2-52.2,26.4-69.9s0.6-32.4-11.7-62.7s-18.9-109.5-16.8-123c3.3-24.9,9.3-42,28.2-61.8
								c28.2-29.4,64.8-33.9,86.7-34.2c35.4-0.3,60,23.1,64.5,29.7s31.5,35.7,38.4,36.9c6.9,1.2,24-10.2,24-10.2l2.1-1.8
								c0,0,0.9-3,0-7.8C399.3,235.4,396.3,239.3,391.8,242.3L391.8,242.3z M315.6,271.7c0.9,0,2.1,0,3-0.3c0.6,0,1.5,0,2.4-0.3
								c1.2,0,2.7-0.3,3.9-0.3c0.6,0,1.5-0.3,2.4-0.3s2.1-0.3,3-0.3s1.8-0.3,2.7-0.3c0.9,0,1.8-0.3,2.7-0.3c0.6,0,1.2-0.3,1.8-0.3
								c1.2-0.3,2.4-0.6,3.6-0.6c0.6,0,1.2-0.3,1.8-0.3c1.2-0.3,2.4-0.6,3.3-0.6c0.6,0,0.9-0.3,1.2-0.3c0.9-0.3,1.8-0.6,2.7-0.6
								c0.3,0,0.6,0,0.9-0.3c1.2-0.3,2.4-0.6,3.3-0.9c0.3,0,0.6,0,0.9-0.3c1.2-0.3,2.1-0.6,3.3-0.9c6.6-1.8,10.5-3.3,10.5-3.3
								s-15,1.8-32.7-16.5c-6.9-11.1-18.3-31.5-36-38.4c-20.4-8.1-88.5-11.7-111.6,37.5s-8.1,91.5,1.8,112.2
								c9.9,20.7,25.5,60.3,24.9,86.1c-0.6,26.1-6.9,63-13.8,79.2c-6.9,16.2-52.8,73.2-62.4,99.9c-9.9,27.9-13.2,46.8,10.5,84.9
								c9,14.7,15,18.9,17.4,24.3c-3.6-15-9.3-27-19.5-42.6c-12-18.9-12-45.3,0-71.1s54-70.2,68.4-128.4S205.8,383,202.2,347
								s24.9-96.6,68.4-81.3c5.7,2.1,11.7,3.3,17.4,4.2h0.3c0.6,0,1.2,0.3,2.1,0.3c1.2,0,2.4,0.3,3.6,0.3c0.9,0,1.8,0,2.4,0.3
								c1.2,0,2.4,0.3,3.9,0.3h12.3C313.5,272,314.7,272,315.6,271.7L315.6,271.7z"/>
							<path id="SvgjsPath6854_00000031205455133881280220000005728116565359216043_" class="st17" d="M198.9,537.5
								c0,0-7.8,19.8-27.9,44.1c-26.7,32.1-32.1,52.2-22.2,77.4c9.9,25.2,23.4,38.4,27.9,49.5s3.3,22.8,3.3,22.8s5.7-12.3,3.3-21.6
								c-2.1-9.3-22.2-41.7-25.2-60s0.3-38.7,12.6-56.1C181.2,578.9,193.5,558.8,198.9,537.5L198.9,537.5z M204.6,542
								c0,0-7.5,34.8-18,52.2s-13.8,39-6,57.3s22.8,42.3,21.6,58.2c0,0,10.2-19.2,0.6-39c-9.6-19.8-12.9-49.2-5.1-69.3
								C205.5,581.6,206.4,555.8,204.6,542L204.6,542z"/>
							<path id="SvgjsPath6855_00000085969353703328654140000017476330526145441700_" class="st3" d="M288.3,270.8
								c0.9,0,1.5,0.3,2.1,0.3c1.2,0,2.4,0.3,3.6,0.3c0.9,0,1.8,0,2.4,0.3c1.2,0,2.4,0.3,3.9,0.3h4.5c-7.2-3-15.6-7.8-22.8-16.2
								c-14.4-17.7-25.5-25.8-48.6-23.4S186,266,187.5,298.7c1.5,32.4,12,53.1,18.6,70.8c-1.8-7.8-3.3-15-3.9-21.9
								c-3.3-36,24.9-96.6,68.4-81.3C276.6,268.4,282.3,269.6,288.3,270.8L288.3,270.8z"/>
						</g>
						
							<g id="svga-group-glasses-single-move_00000169518148426527844200000013604312705637036174_" transform="matrix(1,0,0,1,0,0)">
							<g id="svga-group-glasses-single_00000113341901950527481140000001679440510721061017_">
							</g>
						</g>
					</g>
				</g>
			</g>
			
				<rect id="svga-credit-rect_00000168107183010970342580000013620396974649455261_" x="9" y="646.7" class="st20" width="600" height="45"/>
		</g>
	</g>
</g>
</svg>
