<?xml version="1.0" encoding="utf-8"?>
<!-- Generator: Adobe Illustrator 26.0.2, SVG Export Plug-In . SVG Version: 6.00 Build 0)  -->
<svg version="1.1" id="Layer_1" xmlns="http://www.w3.org/2000/svg" xmlns:xlink="http://www.w3.org/1999/xlink" x="0px" y="0px"
	 viewBox="0 0 650 265" style="enable-background:new 0 0 650 265;" xml:space="preserve">
<style type="text/css">
	.st0{fill-rule:evenodd;clip-rule:evenodd;fill:#FFFFFF;stroke:#1A2238;stroke-width:2.0814;}
	.st1{fill-rule:evenodd;clip-rule:evenodd;fill:#293347;}
	.st2{fill-rule:evenodd;clip-rule:evenodd;fill:#1A2238;}
	.st3{fill-rule:evenodd;clip-rule:evenodd;fill:#FFFFFF;stroke:#1A2238;stroke-width:2.3416;}
	.st4{fill:none;stroke:#1A2238;stroke-width:2.0814;stroke-linecap:square;}
	.st5{fill-rule:evenodd;clip-rule:evenodd;fill:none;stroke:#1A2238;stroke-width:0.5;stroke-miterlimit:10;}
	.st6{fill-rule:evenodd;clip-rule:evenodd;fill:#FFFFFF;stroke:#1A2238;stroke-width:2.0814;stroke-linecap:round;}
	.st7{fill-rule:evenodd;clip-rule:evenodd;fill:#1A2238;stroke:#1A2238;stroke-miterlimit:10;}
	.st8{fill-rule:evenodd;clip-rule:evenodd;fill:#FFFFFF;stroke:#1A2238;stroke-linecap:round;}
	.st9{fill:#FFFFFF;stroke:#1A2238;stroke-width:2;stroke-linecap:round;stroke-linejoin:round;stroke-miterlimit:10;}
	.st10{fill:#1A2238;stroke:#1A2238;stroke-width:2;stroke-miterlimit:10;}
	.st11{fill:#FFFFFF;}
	.st12{fill:#1A2238;}
	.st13{fill:none;stroke:#1A2238;stroke-miterlimit:10;}
	.st14{fill:#1A2238;stroke:#1A2238;stroke-miterlimit:10;}
</style>
<desc>Created with Sketch.</desc>
<path id="Case" class="st0" d="M126,215.3V34.5h268.2v180.8c0,4-3.3,7.3-7.3,7.3H133.3C129.3,222.6,126,219.3,126,215.3z"/>
<path id="Case_00000025426806001332193530000009029703148901128894_" class="st0" d="M238.4,222.6H282v33.6h-43.6V222.6z"/>
<rect x="131.5" y="38.9" class="st0" width="256.7" height="178"/>
<path id="Keyboard" class="st0" d="M222.3,263.7v-7.5h75.8v7.5H222.3z"/>
<path id="Case_00000025429169953825603420000012909127881675587458_" class="st0" d="M325.9,123.5h180.2c3.4,0,6.2,2.8,6.2,6.2
	v116.8c0,3.4-2.8,6.2-6.2,6.2H325.9c-3.4,0-6.2-2.8-6.2-6.2V129.7C319.7,126.3,322.5,123.5,325.9,123.5z"/>
<path id="Keyboard_00000137090149852792424710000014834909251263194558_" class="st0" d="M306.4,253v5.2c0,3,2.4,5.5,5.5,5.5h208.3
	c3,0,5.5-2.4,5.5-5.5V253c0-0.1-0.1-0.3-0.3-0.3H306.7C306.5,252.8,306.4,252.9,306.4,253z"/>
<path id="Screen" class="st0" d="M330.4,135.7h171.2c1.1,0,2.1,0.9,2.1,2.1v100.9c0,1.1-0.9,2.1-2.1,2.1H330.4
	c-1.1,0-2.1-0.9-2.1-2.1V137.8C328.3,136.6,329.2,135.7,330.4,135.7z"/>
<ellipse id="Oval-3" class="st1" cx="254.4" cy="53" rx="1.3" ry="1.3"/>
<path id="Case_00000018936649459647015850000014526366969449562801_" class="st0" d="M179.9,15h120.3v115.3c0,4-3.3,7.3-7.3,7.3
	H187.2c-4,0-7.3-3.3-7.3-7.3V15z"/>
<path id="Case_00000100368967643848818320000016560328234502905277_" class="st0" d="M179.9,9.2c0-4,3.3-7.3,7.3-7.3h105.7
	c4,0,7.3,3.3,7.3,7.3V17H179.9V9.2z"/>
<path id="Rectangle-11_00000134228894896475061150000002209102625279956870_" class="st2" d="M195.5,90.9h2.6c0.6,0,1,0.5,1,1v0
	c0,0.6-0.5,1-1,1h-2.6c-0.6,0-1-0.5-1-1v0C194.5,91.4,194.9,90.9,195.5,90.9z"/>
<path id="Rectangle-11_00000012472265850600008850000012314427169746854051_" class="st2" d="M195.5,38.9h2.6c0.6,0,1,0.5,1,1l0,0
	c0,0.6-0.5,1-1,1h-2.6c-0.6,0-1-0.5-1-1l0,0C194.5,39.4,194.9,38.9,195.5,38.9z"/>
<path id="Rectangle-11_00000160176940441241104630000017764123698074103208_" class="st2" d="M203.3,38.9h7c0.6,0,1,0.5,1,1
	c0,0.6-0.5,1-1,1h-7c-0.6,0-1-0.5-1-1C202.3,39.4,202.8,38.9,203.3,38.9z"/>
<path id="Rectangle-11_00000047020619840442262410000014228891323040501424_" class="st2" d="M215,38.9h7c0.6,0,1,0.5,1,1
	c0,0.6-0.5,1-1,1h-7c-0.6,0-1-0.5-1-1C214,39.4,214.5,38.9,215,38.9z"/>
<path id="Rectangle-11_00000039853422204275586800000000932361627298584221_" class="st2" d="M226.8,38.9h13c0.6,0,1,0.5,1,1
	c0,0.6-0.5,1-1,1h-13c-0.6,0-1-0.5-1-1C225.7,39.4,226.2,38.9,226.8,38.9z"/>
<path id="Rectangle-11_00000020380227350374317840000011252040468729137340_" class="st2" d="M244.5,38.9h19.3c0.6,0,1,0.5,1,1
	c0,0.6-0.5,1-1,1h-19.3c-0.6,0-1-0.5-1-1C243.4,39.4,243.9,38.9,244.5,38.9z"/>
<path id="Rectangle-11_00000140699381223131599210000014562539748499671213_" class="st2" d="M195.5,49.3h2.6c0.6,0,1,0.5,1,1l0,0
	c0,0.6-0.5,1-1,1h-2.6c-0.6,0-1-0.5-1-1l0,0C194.5,49.8,194.9,49.3,195.5,49.3z"/>
<path id="Rectangle-11_00000096029778184974289020000017636497028319977137_" class="st2" d="M195.5,59.7h2.6c0.6,0,1,0.5,1,1l0,0
	c0,0.6-0.5,1-1,1h-2.6c-0.6,0-1-0.5-1-1l0,0C194.5,60.2,194.9,59.7,195.5,59.7z"/>
<path id="Rectangle-11_00000133529210669218227390000006895412304142406837_" class="st2" d="M195.5,70.1h2.6c0.6,0,1,0.5,1,1v0
	c0,0.6-0.5,1-1,1h-2.6c-0.6,0-1-0.5-1-1v0C194.5,70.6,194.9,70.1,195.5,70.1z"/>
<path id="Rectangle-11_00000029753589761851250990000008721694787231566256_" class="st2" d="M195.5,80.5h2.6c0.6,0,1,0.5,1,1v0
	c0,0.6-0.5,1-1,1h-2.6c-0.6,0-1-0.5-1-1v0C194.5,81,194.9,80.5,195.5,80.5z"/>
<path id="Rectangle-11_00000027588719684074365110000012727242683488345273_" class="st2" d="M195.5,101.3h2.6c0.6,0,1,0.5,1,1v0
	c0,0.6-0.5,1-1,1h-2.6c-0.6,0-1-0.5-1-1v0C194.5,101.8,194.9,101.3,195.5,101.3z"/>
<path id="Rectangle-11_00000000945132485929960420000000825850599880286867_" class="st2" d="M195.5,111.8h2.6c0.6,0,1,0.5,1,1v0
	c0,0.6-0.5,1-1,1h-2.6c-0.6,0-1-0.5-1-1v0C194.5,112.2,194.9,111.8,195.5,111.8z"/>
<path id="Rectangle-11_00000106861221618141316520000001652442578990963613_" class="st2" d="M203.3,49.3h16.1c0.6,0,1,0.5,1,1l0,0
	c0,0.6-0.5,1-1,1h-16.1c-0.6,0-1-0.5-1-1l0,0C202.3,49.8,202.8,49.3,203.3,49.3z"/>
<path id="Rectangle-11_00000065055429165182838450000007092798696247745202_" class="st2" d="M224.2,49.3h29.2c0.6,0,1,0.5,1,1l0,0
	c0,0.6-0.5,1-1,1h-29.2c-0.6,0-1-0.5-1-1l0,0C223.1,49.8,223.6,49.3,224.2,49.3z"/>
<path id="Rectangle-11_00000039117915816354023040000004426885638619362747_" class="st2" d="M258,49.3h10.9c0.6,0,1,0.5,1,1l0,0
	c0,0.6-0.5,1-1,1H258c-0.6,0-1-0.5-1-1l0,0C257,49.8,257.4,49.3,258,49.3z"/>
<path id="Rectangle-11_00000153682289453436566990000013062945224399402661_" class="st2" d="M203.3,59.7h10.9c0.6,0,1,0.5,1,1l0,0
	c0,0.6-0.5,1-1,1h-10.9c-0.6,0-1-0.5-1-1l0,0C202.3,60.2,202.8,59.7,203.3,59.7z"/>
<path id="Rectangle-11_00000050658219619486467700000018059280095963611797_" class="st2" d="M218.9,59.7h10.9c0.6,0,1,0.5,1,1l0,0
	c0,0.6-0.5,1-1,1h-10.9c-0.6,0-1-0.5-1-1l0,0C217.9,60.2,218.4,59.7,218.9,59.7z"/>
<path id="Rectangle-11_00000026856633355938988380000009281013934310724760_" class="st2" d="M234.6,59.7h5.7c0.6,0,1,0.5,1,1l0,0
	c0,0.6-0.5,1-1,1h-5.7c-0.6,0-1-0.5-1-1l0,0C233.5,60.2,234,59.7,234.6,59.7z"/>
<path id="Rectangle-11_00000121960561147806846110000006394668955849805488_" class="st2" d="M203.3,70.1h24c0.6,0,1,0.5,1,1v0
	c0,0.6-0.5,1-1,1h-24c-0.6,0-1-0.5-1-1v0C202.3,70.6,202.8,70.1,203.3,70.1z"/>
<path id="Rectangle-11_00000124876933196426327620000014382915949080565693_" class="st2" d="M232,70.1h16.1c0.6,0,1,0.5,1,1v0
	c0,0.6-0.5,1-1,1H232c-0.6,0-1-0.5-1-1v0C230.9,70.6,231.4,70.1,232,70.1z"/>
<path id="Rectangle-11_00000128470323867429354660000011704415467250132111_" class="st2" d="M203.3,80.5h24c0.6,0,1,0.5,1,1v0
	c0,0.6-0.5,1-1,1h-24c-0.6,0-1-0.5-1-1v0C202.3,81,202.8,80.5,203.3,80.5z"/>
<path id="Rectangle-11_00000010993513180649402000000015975379411009896617_" class="st2" d="M232,80.5h31.8c0.6,0,1,0.5,1,1v0
	c0,0.6-0.5,1-1,1H232c-0.6,0-1-0.5-1-1v0C230.9,81,231.4,80.5,232,80.5z"/>
<path id="Rectangle-11_00000140716594179072484880000018341594232349511098_" class="st2" d="M203.3,90.9h16.1c0.6,0,1,0.5,1,1v0
	c0,0.6-0.5,1-1,1h-16.1c-0.6,0-1-0.5-1-1v0C202.3,91.4,202.8,90.9,203.3,90.9z"/>
<path id="Rectangle-11_00000131348670605871298150000007339702245818728624_" class="st2" d="M224.2,90.9h16.1c0.6,0,1,0.5,1,1v0
	c0,0.6-0.5,1-1,1h-16.1c-0.6,0-1-0.5-1-1v0C223.1,91.4,223.6,90.9,224.2,90.9z"/>
<path id="Rectangle-11_00000066509417712691338280000013543323010724442297_" class="st2" d="M245,90.9h8.3c0.6,0,1,0.5,1,1v0
	c0,0.6-0.5,1-1,1H245c-0.6,0-1-0.5-1-1v0C243.9,91.4,244.4,90.9,245,90.9z"/>
<path id="Rectangle-11_00000003807597912207003150000011504424799018487973_" class="st2" d="M203.3,101.3h31.8c0.6,0,1,0.5,1,1v0
	c0,0.6-0.5,1-1,1h-31.8c-0.6,0-1-0.5-1-1v0C202.3,101.8,202.8,101.3,203.3,101.3z"/>
<path id="Rectangle-11_00000170962865345771070910000005465622235886667189_" class="st2" d="M203.3,111.8h13.5c0.6,0,1,0.5,1,1v0
	c0,0.6-0.5,1-1,1h-13.5c-0.6,0-1-0.5-1-1v0C202.3,112.2,202.8,111.8,203.3,111.8z"/>
<path id="Case_00000070799055421597004880000001975536847342019003_" class="st0" d="M415,96.7h142.7v101.5c0,4-3.3,7.3-7.3,7.3
	H422.3c-4,0-7.3-3.3-7.3-7.3V96.7z"/>
<path id="Case_00000153707340439580559600000001807856074374314409_" class="st0" d="M415,90.9c0-4,3.3-7.3,7.3-7.3h128.1
	c4,0,7.3,3.3,7.3,7.3v7.8H415V90.9z"/>
<ellipse id="Oval-6_00000051348903986426819270000012844686509928217023_" class="st3" cx="503.2" cy="151" rx="26" ry="26"/>
<path id="Rectangle-12" class="st0" d="M500.4,121.9v6.2h6.2v-6.2H500.4z"/>
<path id="Rectangle-12_00000148644328246481318030000012387200032554115735_" class="st0" d="M500.1,173.9v6.2h6.2v-6.2H500.1z"/>
<path id="Rectangle-12_00000117669862022526288680000006306561984289351357_" class="st0" d="M474.1,148.2v6.2h6.2v-6.2H474.1z"/>
<path id="Rectangle-12_00000081649747120633954950000016524776409426574737_" class="st0" d="M525.9,148.2v6.2h6.2v-6.2H525.9z"/>
<line id="Line" class="st4" x1="529.3" y1="127.6" x2="529.3" y2="147.1"/>
<line id="Line_00000156587852891388029200000008307162660143567802_" class="st4" x1="529.3" y1="154.9" x2="529.3" y2="174.5"/>
<ellipse id="Oval-5_00000183232108089850858990000016224883167723324043_" class="st2" cx="529.3" cy="126.8" rx="3.1" ry="3.1"/>
<ellipse id="Oval-5_00000180352260571595470780000002379933242654847403_" class="st2" cx="529.3" cy="176.3" rx="3.1" ry="3.1"/>
<g id="Group-60" transform="translate(439.463238, 115.519364)">
	<path id="Rectangle-15" class="st0" d="M4.2,4h9.9c1.7,0,3.1,1.4,3.1,3.1V17c0,1.7-1.4,3.1-3.1,3.1H4.2C2.4,20.2,1,18.8,1,17V7.2
		C1,5.4,2.4,4,4.2,4z"/>
	<path id="Rectangle-15_00000176766088794084467990000000300246482284722066_" class="st0" d="M4.2,27.5h9.9c1.7,0,3.1,1.4,3.1,3.1
		v9.9c0,1.7-1.4,3.1-3.1,3.1H4.2c-1.7,0-3.1-1.4-3.1-3.1v-9.9C1,28.9,2.4,27.5,4.2,27.5z"/>
	<path id="Rectangle-15_00000018938233542190067100000011111180857214281125_" class="st0" d="M4.2,50.9h9.9c1.7,0,3.1,1.4,3.1,3.1
		v9.9c0,1.7-1.4,3.1-3.1,3.1H4.2C2.4,67,1,65.6,1,63.9V54C1,52.3,2.4,50.9,4.2,50.9z"/>
</g>
<ellipse id="Oval-8" class="st0" cx="632.4" cy="239" rx="15.6" ry="15.6"/>
<ellipse id="Oval-8_00000183957382281974148170000002171176201483422087_" class="st0" cx="632.4" cy="239" rx="9.1" ry="9.1"/>
<path id="Rectangle-16" class="st0" d="M588.6,214c-0.6,0-1,0.5-1,1v43.7c0,2.9,2.3,5.2,5.2,5.2h35.9c2.9,0,5.2-2.3,5.2-5.2V215
	c0-0.6-0.5-1-1-1H588.6z"/>
<path id="Oval-8_00000083061467619413204160000000120519499907653529_" class="st0" d="M557.9,263.7c8.6,0,15.6,0,15.6,0
	c0-8.6-7-15.6-15.6-15.6c-8.6,0-15.6,7-15.6,15.6C542.3,263.7,549.3,263.7,557.9,263.7z"/>
<path id="Rectangle-11_00000118368426023361848450000014350103627731055232_" class="st2" d="M557.9,247.6L557.9,247.6
	c0.6,0,1,0.5,1,1v1.3c0,0.6-0.5,1-1,1l0,0c-0.6,0-1-0.5-1-1v-1.3C556.9,248,557.3,247.6,557.9,247.6z"/>
<rect x="528" y="90.9" class="st2" width="4.4" height="0.6"/>
<rect x="536.9" y="89" class="st5" width="4.4" height="4.4"/>
<g>
	
		<rect x="545.3" y="90.8" transform="matrix(0.7071 0.7071 -0.7071 0.7071 224.9528 -360.7006)" class="st2" width="5.2" height="0.8"/>
	
		<rect x="545.3" y="90.8" transform="matrix(0.6659 -0.7461 0.7461 0.6659 115.0285 439.2264)" class="st2" width="5.2" height="0.8"/>
</g>
<rect x="270.5" y="9.2" class="st2" width="4.4" height="0.6"/>
<rect x="279.4" y="7.3" class="st5" width="4.4" height="4.4"/>
<g>
	
		<rect x="287.8" y="9.1" transform="matrix(0.7071 0.7071 -0.7071 0.7071 91.7774 -202.5789)" class="st2" width="5.2" height="0.8"/>
	
		<rect x="287.8" y="9.1" transform="matrix(0.6659 -0.7461 0.7461 0.6659 89.9549 219.8483)" class="st2" width="5.2" height="0.8"/>
</g>
<path class="st6" d="M606.7,191.8c-0.7,1.1-2.2,3.7-2.4,7.3c-0.2,3.3,1.8,4.8,1.8,8c0,2.8-1.4,5.1-2.9,6.9"/>
<path class="st6" d="M612.5,191.8c-0.7,1.1-2.2,3.7-2.4,7.3c-0.2,3.3,1.8,4.8,1.8,8c0,2.8-1.4,5.1-2.9,6.9"/>
<path class="st6" d="M618.5,191.8c-0.7,1.1-2.2,3.7-2.4,7.3c-0.2,3.3,1.8,4.8,1.8,8c0,2.8-1.4,5.1-2.9,6.9"/>
<g>
	<path id="Case_00000165935400458616467980000009430168978469630853_" class="st0" d="M107.5,162.7h39.1c3.4,0,6.2,2.8,6.2,6.2v88.5
		c0,3.4-2.8,6.2-6.2,6.2h-39.1c-3.4,0-6.2-2.8-6.2-6.2V169C101.3,165.5,104.1,162.7,107.5,162.7z"/>
	<path id="Rectangle-11" class="st7" d="M115.9,167.2h22.7c0.6,0,1,0.5,1,1v0c0,0.6-0.5,1-1,1h-22.7c-0.6,0-1-0.5-1-1v0
		C114.8,167.6,115.3,167.2,115.9,167.2z"/>
	<ellipse id="Oval-6_00000038371785344410360010000001374328751041333893_" class="st0" cx="115.9" cy="211.1" rx="3.9" ry="3.9"/>
	<path id="Rectangle-11_00000020358394510872031410000010961826053640069010_" class="st7" d="M126,204.4h16.1c0.6,0,1,0.5,1,1v0
		c0,0.6-0.5,1-1,1H126c-0.6,0-1-0.5-1-1v0C125,204.8,125.4,204.4,126,204.4z"/>
	<path id="Rectangle-11_00000168832879437773244020000003021909751546092673_" class="st7" d="M126,210.1h10.9c0.6,0,1,0.5,1,1v0
		c0,0.6-0.5,1-1,1H126c-0.6,0-1-0.5-1-1v0C125,210.6,125.4,210.1,126,210.1z"/>
	<path id="Rectangle-11_00000097472638038783177640000015149510699865123457_" class="st7" d="M126,215.8h5.7c0.6,0,1,0.5,1,1v0
		c0,0.6-0.5,1-1,1H126c-0.6,0-1-0.5-1-1v0C125,216.3,125.4,215.8,126,215.8z"/>
	<path class="st8" d="M129.6,259.9h-7.2c-1,0-1.9-0.8-1.9-1.9l0,0c0-1,0.8-1.9,1.9-1.9h7.2c1,0,1.9,0.8,1.9,1.9l0,0
		C131.5,259.1,130.7,259.9,129.6,259.9z"/>
</g>
<g>
	<polygon class="st9" points="30.1,167.5 25.3,159.9 22.1,168.3 	"/>
	<polygon class="st10" points="25.3,159.9 23.7,164.1 27.7,163.7 	"/>
	
		<rect x="25.1" y="167.7" transform="matrix(0.9955 -9.472533e-02 9.472533e-02 0.9955 -18.7898 3.6579)" class="st9" width="8" height="64"/>
	<path class="st11" d="M35.3,243.4l-4,0.4c-1.1,0.1-2.1-0.7-2.2-1.8l-0.6-6l8-0.8l0.6,6C37.2,242.3,36.4,243.3,35.3,243.4z"/>
</g>
<g>
	<polygon class="st11" points="21.4,235.9 26.8,243.1 29.3,234.5 	"/>
	<polygon class="st12" points="26.8,243.1 28,238.8 24.1,239.5 	"/>
	
		<rect x="15.8" y="171.7" transform="matrix(-0.9848 0.1737 -0.1737 -0.9848 74.7276 400.8701)" class="st9" width="8" height="64"/>
	<path class="st9" d="M10.2,160.7l3.9-0.7c1.1-0.2,2.1,0.5,2.3,1.6l1,5.9l-7.9,1.4l-1-5.9C8.4,161.9,9.1,160.9,10.2,160.7z"/>
	<rect x="9.9" y="168.2" transform="matrix(-0.9848 0.1737 -0.1737 -0.9848 57.1948 335.4371)" class="st9" width="8" height="4"/>
</g>
<g>
	<path class="st9" d="M40.2,157.7l-8,83.6l15.9,1.5l8-83.6c0.2-2.2-1.4-4.2-3.6-4.4l-8-0.8C42.4,153.9,40.4,155.5,40.2,157.7z
		 M47.8,162.5c-1.1-0.1-1.9-1.1-1.8-2.2s1.1-1.9,2.2-1.8c1.1,0.1,1.9,1.1,1.8,2.2S48.9,162.6,47.8,162.5z"/>
	<line class="st13" x1="39.4" y1="165.7" x2="47.4" y2="166.5"/>
	<line class="st13" x1="39" y1="169.7" x2="43" y2="170.1"/>
	<line class="st13" x1="38.7" y1="173.7" x2="42.6" y2="174"/>
	<line class="st13" x1="38.3" y1="177.7" x2="46.2" y2="178.4"/>
	<line class="st13" x1="37.9" y1="181.6" x2="41.9" y2="182"/>
	<line class="st13" x1="37.5" y1="185.6" x2="41.5" y2="186"/>
	<line class="st13" x1="37.1" y1="189.6" x2="45.1" y2="190.4"/>
	<line class="st13" x1="36.8" y1="193.6" x2="40.7" y2="194"/>
	<line class="st13" x1="36.4" y1="197.6" x2="40.4" y2="197.9"/>
	<line class="st13" x1="36" y1="201.5" x2="44" y2="202.3"/>
	<line class="st13" x1="35.6" y1="205.5" x2="39.6" y2="205.9"/>
	<line class="st13" x1="35.2" y1="209.5" x2="39.2" y2="209.9"/>
	<line class="st13" x1="34.9" y1="213.5" x2="42.8" y2="214.2"/>
	<line class="st13" x1="34.5" y1="217.5" x2="38.5" y2="217.8"/>
	<line class="st13" x1="34.1" y1="221.5" x2="38.1" y2="221.8"/>
	<line class="st13" x1="33.7" y1="225.4" x2="41.7" y2="226.2"/>
	<line class="st13" x1="33.3" y1="229.4" x2="37.3" y2="229.8"/>
	<line class="st13" x1="32.9" y1="233.4" x2="36.9" y2="233.8"/>
	<line class="st13" x1="32.6" y1="237.4" x2="40.5" y2="238.1"/>
</g>
<path class="st9" d="M45.3,263.7h-24c-4.4,0-8-3.6-8-8v-44h40v44C53.3,260.2,49.7,263.7,45.3,263.7z"/>
<g>
	<ellipse id="Oval-7" class="st0" cx="77.7" cy="148.2" rx="40" ry="39.9"/>
	<path id="Shape" class="st14" d="M67.9,157.5c-1.3-1.1-2.6-2.3-3.8-3.4c-2-1.8-4.1-3.6-6.1-5.4c-0.5-0.4-0.9-0.8-1.4-1.2
		c0,0.5,0,1.1,0,1.6c1.3-1.1,2.6-2.3,3.8-3.4c2-1.8,4.1-3.6,6.1-5.4c0.5-0.4,0.9-0.8,1.4-1.2c0.5-0.4,0.4-1.2,0-1.6
		c-0.5-0.4-1.2-0.4-1.7,0c-1.3,1.1-2.6,2.3-3.8,3.4c-2,1.8-4.1,3.6-6.1,5.4c-0.5,0.4-0.9,0.8-1.4,1.2c-0.4,0.4-0.4,1.2,0,1.6
		c1.3,1.1,2.6,2.3,3.8,3.4c2,1.8,4.1,3.6,6.1,5.4c0.5,0.4,0.9,0.8,1.4,1.2c0.5,0.4,1.2,0.5,1.7,0C68.4,158.7,68.4,157.9,67.9,157.5
		L67.9,157.5z"/>
	<path id="Shape_00000172421658798578732620000016539018098602631851_" class="st14" d="M87.4,139c1.3,1.1,2.6,2.3,3.8,3.4
		c2,1.8,4.1,3.6,6.1,5.4c0.5,0.4,0.9,0.8,1.4,1.2c0-0.5,0-1.1,0-1.6c-1.3,1.1-2.6,2.3-3.8,3.4c-2,1.8-4.1,3.6-6.1,5.4
		c-0.5,0.4-0.9,0.8-1.4,1.2c-0.5,0.4-0.4,1.2,0,1.6c0.5,0.4,1.2,0.4,1.7,0c1.3-1.1,2.6-2.3,3.8-3.4c2-1.8,4.1-3.6,6.1-5.4
		c0.5-0.4,0.9-0.8,1.4-1.2c0.4-0.4,0.4-1.2,0-1.6c-1.3-1.1-2.6-2.3-3.8-3.4c-2-1.8-4.1-3.6-6.1-5.4c-0.5-0.4-0.9-0.8-1.4-1.2
		c-0.5-0.4-1.2-0.5-1.7,0C87,137.8,86.9,138.6,87.4,139L87.4,139z"/>
	<path id="Shape_00000183970442188529625100000012262634959704289928_" class="st14" d="M73.5,164.3c0.4-1,0.7-2.1,1-3.1
		c0.8-2.5,1.7-5,2.5-7.5c1-3,2-6,3-9.1c0.9-2.6,1.7-5.2,2.6-7.8c0.4-1.3,0.9-2.5,1.3-3.8c0,0,0,0,0-0.1c0.2-0.6-0.2-1.3-0.8-1.4
		c-0.6-0.1-1.2,0.2-1.4,0.8c-0.4,1-0.7,2.1-1,3.1c-0.8,2.5-1.7,5-2.5,7.5c-1,3-2,6-3,9.1c-0.9,2.6-1.7,5.2-2.6,7.8
		c-0.4,1.3-0.9,2.5-1.3,3.8c0,0,0,0,0,0.1c-0.2,0.6,0.2,1.3,0.8,1.4C72.7,165.3,73.3,164.9,73.5,164.3L73.5,164.3z"/>
</g>
</svg>
