<?xml version="1.0" encoding="utf-8"?>
<!-- Generator: Adobe Illustrator 26.0.2, SVG Export Plug-In . SVG Version: 6.00 Build 0)  -->
<svg version="1.1" id="Layer_1" xmlns="http://www.w3.org/2000/svg" xmlns:xlink="http://www.w3.org/1999/xlink" x="0px" y="0px"
	 viewBox="0 0 650 265" style="enable-background:new 0 0 650 265;" xml:space="preserve">
<style type="text/css">
	.st0{fill:#1A2238;}
	.st1{fill-rule:evenodd;clip-rule:evenodd;fill:#FFFFFF;stroke:#1A2238;stroke-width:2.0814;}
	.st2{fill:#FFFFFF;stroke:#1A2238;stroke-width:2;stroke-linecap:round;stroke-linejoin:round;stroke-miterlimit:10;}
	.st3{fill:#1A2238;stroke:#1A2238;stroke-width:2;stroke-miterlimit:10;}
	.st4{fill:#FFFFFF;}
	.st5{fill:none;stroke:#1A2238;stroke-miterlimit:10;}
	.st6{fill:#1A2238;stroke:#1A2238;stroke-miterlimit:10;}
	.st7{fill-rule:evenodd;clip-rule:evenodd;fill:#1A2238;}
	.st8{fill:none;stroke:#1A2238;stroke-width:0.5;stroke-miterlimit:10;}
	.st9{fill:none;stroke:#1A2238;stroke-width:2;stroke-linecap:round;stroke-linejoin:round;stroke-miterlimit:10;}
</style>
<desc>Created with Sketch.</desc>
<g>
	<g>
		<path class="st0" d="M369,48.5c-11.7,0-21.2-9.5-21.2-21.2c0-11.7,9.5-21.2,21.2-21.2c11.7,0,21.2,9.5,21.2,21.2
			C390.2,39,380.7,48.5,369,48.5z M369,7.3c-11,0-20,9-20,20c0,11,9,20,20,20c11,0,20-9,20-20C389,16.3,380,7.3,369,7.3z"/>
	</g>
	<g>
		<g>
			<path class="st0" d="M378.4,32.4h-4.3v-1.2h4.3c0.9,0,1.6-0.7,1.6-1.6c0-0.9-0.7-1.7-1.6-1.7h-1.5c-1.5,0-2.8-1.2-2.8-2.8
				c0-1.6,1.2-2.8,2.8-2.8h4.3v1.2h-4.3c-0.9,0-1.6,0.7-1.6,1.6c0,1,0.7,1.7,1.6,1.7h1.5c1.5,0,2.8,1.2,2.8,2.8
				C381.2,31.1,380,32.4,378.4,32.4z"/>
		</g>
		<g>
			<path class="st0" d="M363.9,32.4h-4.3c-1.5,0-2.8-1.2-2.8-2.8v-4.5c0-1.5,1.2-2.8,2.8-2.8h4.3v1.2h-4.3c-0.9,0-1.6,0.7-1.6,1.6
				v4.5c0,0.9,0.7,1.6,1.6,1.6h4.3V32.4z"/>
		</g>
		<g>
			<path class="st0" d="M369.8,32.4h-4.3v-1.2h4.3c0.9,0,1.6-0.7,1.6-1.6c0-0.9-0.7-1.7-1.6-1.7h-1.5c-1.5,0-2.8-1.2-2.8-2.8
				c0-1.6,1.2-2.8,2.8-2.8h4.3v1.2h-4.3c-0.9,0-1.6,0.7-1.6,1.6c0,1,0.7,1.7,1.6,1.7h1.5c1.5,0,2.8,1.2,2.8,2.8
				C372.6,31.1,371.3,32.4,369.8,32.4z"/>
		</g>
	</g>
</g>
<g>
	<g>
		<path class="st0" d="M78.5,126.2c-14,0-25.5-11.4-25.5-25.5c0-14,11.4-25.5,25.5-25.5c14,0,25.5,11.4,25.5,25.5
			C104,114.8,92.5,126.2,78.5,126.2z M78.5,76.6c-13.3,0-24.1,10.8-24.1,24.1c0,13.3,10.8,24.1,24.1,24.1
			c13.3,0,24.1-10.8,24.1-24.1C102.5,87.4,91.8,76.6,78.5,76.6z"/>
	</g>
	<g>
		<g>
			<polygon class="st0" points="88.7,106.1 87.3,106.1 87.3,98.6 83.8,101.5 80.3,98.6 80.3,106.1 78.9,106.1 78.9,95.7 83.8,99.6 
				88.7,95.7 			"/>
		</g>
		<g>
			<polygon class="st0" points="97.9,106.1 90.3,106.1 90.3,95.3 91.7,95.3 91.7,104.7 97.9,104.7 			"/>
		</g>
		<g>
			<rect x="66.9" y="95.3" class="st0" width="1.4" height="10.8"/>
		</g>
		<g>
			<rect x="60.7" y="95.3" class="st0" width="1.4" height="10.8"/>
		</g>
		<g>
			<rect x="60.7" y="100" class="st0" width="7.6" height="1.4"/>
		</g>
		<g>
			<rect x="72.9" y="95.3" class="st0" width="1.4" height="10.8"/>
		</g>
		<g>
			<rect x="69.8" y="95.3" class="st0" width="7.6" height="1.4"/>
		</g>
	</g>
</g>
<g>
	<g>
		
			<rect x="611.8" y="174" transform="matrix(0.7331 -0.6801 0.6801 0.7331 34.2596 468.0506)" class="st0" width="3.3" height="32.8"/>
	</g>
	<g>
		
			<rect x="591.6" y="230.5" transform="matrix(0.548 -0.8365 0.8365 0.548 83.1331 618.171)" class="st0" width="43.9" height="3.3"/>
	</g>
	<g>
		<g>
			<path class="st0" d="M568.8,197.9c-0.9,0-1.9-0.1-2.8-0.4c-2-0.5-3.8-1.5-5.3-3c-1.5-1.5-2.5-3.3-3-5.3c-1-3.9,0.2-8.1,3-10.9
				l2.4,2.4c-2,2-2.8,5-2.1,7.8c0.4,1.4,1.1,2.7,2.1,3.7c1.1,1,2.3,1.8,3.7,2.1c2.8,0.7,5.7-0.1,7.8-2.1l2.4,2.4
				C574.8,196.7,571.8,197.9,568.8,197.9z"/>
		</g>
		<g>
			<path class="st0" d="M589.9,209.8l-44.5-44.5l1.2-1.2c9.5-9.5,22.6-14.3,34.2-12.6c2.6,0.4,5,1.1,7.3,2.1l9.9-9.9l13.5,13.4
				l-9.9,9.9c1,2.3,1.7,4.8,2.1,7.3l0,0c1.8,11.6-3.1,24.6-12.6,34.2L589.9,209.8z M550.2,165.4l39.7,39.7c8-8.6,12-20,10.5-30.1
				l0,0c-0.4-2.6-1.2-5.1-2.3-7.4l-0.5-1.1l9.2-9.2l-8.7-8.7l-9.2,9.2l-1.1-0.5c-2.3-1.1-4.8-1.9-7.5-2.3
				C570.2,153.4,558.8,157.4,550.2,165.4z"/>
		</g>
	</g>
	<g>
		<path class="st0" d="M629.6,216.6c-4.9,0-8.9-4-8.9-8.9c0-4.9,4-8.9,8.9-8.9c4.9,0,8.9,4,8.9,8.9
			C638.5,212.6,634.5,216.6,629.6,216.6z M629.6,202.1c-3.1,0-5.6,2.5-5.6,5.6c0,3.1,2.5,5.6,5.6,5.6s5.6-2.5,5.6-5.6
			C635.2,204.6,632.7,202.1,629.6,202.1z"/>
	</g>
	<g>
		<path class="st0" d="M610.1,265.4h-35.7v-1.7c0-9.8,8-17.8,17.8-17.8c9.8,0,17.8,8,17.8,17.8V265.4z M577.9,262.1h28.8
			c-0.8-7.2-7-12.8-14.4-12.8C584.8,249.3,578.7,254.9,577.9,262.1z"/>
	</g>
</g>
<path id="Oval-8_00000121971420267281787800000007986407159609903027_" class="st1" d="M353.9,264.3c8.6,0,15.6,0,15.6,0
	c0-8.6-7-15.6-15.6-15.6c-8.6,0-15.6,7-15.6,15.6C338.3,264.3,345.3,264.3,353.9,264.3z"/>
<g>
	<g>
		<g>
			<path class="st0" d="M108.8,265.3H75.3l-0.1-0.1c-6.1-2.3-8.2-8-8.3-8.3l-0.4-1.1h51.2l-0.4,1.1c-0.1,0.2-2.1,6-8.3,8.3
				L108.8,265.3z M75.6,263.6h32.9c3.7-1.5,5.7-4.4,6.6-6.1H69C69.8,259.2,71.9,262.2,75.6,263.6z"/>
		</g>
		<g>
			<path class="st0" d="M106.5,257.2l-1.4-1c8.1-10.7,7.7-22.9,7.5-26H71.5c-0.2,3.1-0.6,15.3,7.5,26l-1.4,1
				c-9.7-12.8-7.8-27.4-7.7-28l0.1-0.7h44.1l0.1,0.7C114.3,229.8,116.2,244.4,106.5,257.2z"/>
		</g>
		<g>
			<path class="st0" d="M112.7,247.2c-0.5,0-0.9,0-1.4-0.1l0.1-1.7c4.1,0.3,7.2-1,8.4-3.6c0.9-2,0.6-4.5-0.9-6c-1.3-1.2-3-1.4-5-0.4
				l-0.7-1.5c2.6-1.3,5.2-1,7,0.8c2,1.9,2.5,5.2,1.3,7.9C120.7,244,118.5,247.2,112.7,247.2z"/>
		</g>
		<g>
			<rect x="70.5" y="231.6" class="st0" width="43" height="1.7"/>
		</g>
	</g>
	<g>
		<g>
			<path class="st0" d="M96,225.9l-1.2-1.2c1.4-1.4,2.9-2.9-1.2-8.5c-1.5-2.1-2-4.2-1.5-6.2c1.1-4,5.9-6.3,6.2-6.3l0.7,1.6
				c0,0-4.4,2-5.2,5.2c-0.4,1.5,0,3.1,1.2,4.7C99.1,220.9,98.4,223.5,96,225.9z"/>
		</g>
		<g>
			<path class="st0" d="M88.2,227.1l-1.2-1.2c0.9-0.9,1.8-1.8-0.9-5.5c-1.1-1.5-1.5-3-1.1-4.5c0.8-2.9,4.2-4.5,4.4-4.5l0.7,1.6
				c0,0-2.9,1.3-3.4,3.4c-0.3,1,0,2,0.8,3C90.5,223.5,89.9,225.4,88.2,227.1z"/>
		</g>
	</g>
</g>
<g>
	<path id="Case_00000096038488428349223810000003340121420385975700_" class="st1" d="M133.6,229.6V71.2h262.2v158.4h-255
		C136.8,229.6,133.6,229.6,133.6,229.6z"/>
	<path id="Case_00000025426806001332193530000009029703148901128894_" class="st1" d="M243.4,229.6h42.6v28.3h-42.6V229.6z"/>
	<rect x="139" y="74.9" class="st1" width="250.9" height="149.9"/>
	<path id="Keyboard_00000120540795878178560680000017003074277434877087_" class="st1" d="M227.7,264.2v-6.3h74.1v6.3H227.7z"/>
	<rect x="401.2" y="47.8" class="st1" width="100.7" height="216.6"/>
	<rect x="422.6" y="58.7" class="st1" width="57.9" height="17.5"/>
	<rect x="422.6" y="81.1" class="st1" width="57.9" height="17.5"/>
	<rect x="422.6" y="245.7" class="st1" width="57.9" height="4.8"/>
	<rect x="422.6" y="224.8" class="st1" width="57.9" height="4.8"/>
	<rect x="422.6" y="235.2" class="st1" width="57.9" height="4.8"/>
	<circle class="st1" cx="451.6" cy="197.3" r="16.3"/>
</g>
<g>
	<polygon class="st2" points="29.5,168.6 24.7,161 21.5,169.4 	"/>
	<polygon class="st3" points="24.7,161 23.1,165.2 27.1,164.8 	"/>
	
		<rect x="24.5" y="168.8" transform="matrix(0.9955 -9.472565e-02 9.472565e-02 0.9955 -18.8904 3.6012)" class="st2" width="8" height="64"/>
	<path class="st4" d="M34.7,244.5l-4,0.4c-1.1,0.1-2.1-0.7-2.2-1.8l-0.6-6l8-0.8l0.6,6C36.6,243.4,35.8,244.4,34.7,244.5z"/>
</g>
<g>
	<polygon class="st4" points="20.8,237 26.2,244.2 28.7,235.6 	"/>
	<polygon class="st0" points="26.2,244.2 27.4,239.9 23.5,240.6 	"/>
	<rect x="15.2" y="172.8" transform="matrix(0.9848 -0.1737 0.1737 0.9848 -35.2774 6.4543)" class="st2" width="8" height="64"/>
	<path class="st2" d="M9.6,161.8l3.9-0.7c1.1-0.2,2.1,0.5,2.3,1.6l1,5.9L8.9,170l-1-5.9C7.8,163,8.5,162,9.6,161.8z"/>
	<rect x="9.3" y="169.3" transform="matrix(0.9848 -0.1737 0.1737 0.9848 -29.5539 4.9201)" class="st2" width="8" height="4"/>
</g>
<g>
	<path class="st2" d="M39.6,158.8l-8,83.6l15.9,1.5l8-83.6c0.2-2.2-1.4-4.2-3.6-4.4l-8-0.8C41.8,155,39.8,156.6,39.6,158.8z
		 M47.2,163.6c-1.1-0.1-1.9-1.1-1.8-2.2s1.1-1.9,2.2-1.8c1.1,0.1,1.9,1.1,1.8,2.2S48.3,163.7,47.2,163.6z"/>
	<line class="st5" x1="38.8" y1="166.8" x2="46.8" y2="167.6"/>
	<line class="st5" x1="38.4" y1="170.8" x2="42.4" y2="171.2"/>
	<line class="st5" x1="38.1" y1="174.8" x2="42" y2="175.1"/>
	<line class="st5" x1="37.7" y1="178.8" x2="45.6" y2="179.5"/>
	<line class="st5" x1="37.3" y1="182.7" x2="41.3" y2="183.1"/>
	<line class="st5" x1="36.9" y1="186.7" x2="40.9" y2="187.1"/>
	<line class="st5" x1="36.5" y1="190.7" x2="44.5" y2="191.5"/>
	<line class="st5" x1="36.2" y1="194.7" x2="40.1" y2="195.1"/>
	<line class="st5" x1="35.8" y1="198.7" x2="39.8" y2="199"/>
	<line class="st5" x1="35.4" y1="202.6" x2="43.4" y2="203.4"/>
	<line class="st5" x1="35" y1="206.6" x2="39" y2="207"/>
	<line class="st5" x1="34.6" y1="210.6" x2="38.6" y2="211"/>
	<line class="st5" x1="34.3" y1="214.6" x2="42.2" y2="215.3"/>
	<line class="st5" x1="33.9" y1="218.6" x2="37.9" y2="218.9"/>
	<line class="st5" x1="33.5" y1="222.6" x2="37.5" y2="222.9"/>
	<line class="st5" x1="33.1" y1="226.5" x2="41.1" y2="227.3"/>
	<line class="st5" x1="32.7" y1="230.5" x2="36.7" y2="230.9"/>
	<line class="st5" x1="32.3" y1="234.5" x2="36.3" y2="234.9"/>
	<line class="st5" x1="32" y1="238.5" x2="39.9" y2="239.2"/>
</g>
<path class="st2" d="M44.7,263.8h-24c-4.4,0-8-3.6-8-8v-44h40v44C52.7,260.3,49.1,263.8,44.7,263.8z"/>
<g>
	<g>
		<g>
			<path class="st0" d="M538.1,265.9h-15c-4.6,0-8.4-3.8-8.4-8.4v-41.1c0-4.6,3.8-8.4,8.4-8.4h15c4.6,0,8.4,3.8,8.4,8.4v41.1
				C546.5,262.1,542.8,265.9,538.1,265.9z M523.1,211.3c-2.8,0-5.1,2.3-5.1,5.1v41.1c0,2.8,2.3,5.1,5.1,5.1h15
				c2.8,0,5.1-2.3,5.1-5.1v-41.1c0-2.8-2.3-5.1-5.1-5.1H523.1z"/>
		</g>
		<g>
			<rect x="516.4" y="215.8" class="st0" width="28.6" height="3.2"/>
		</g>
		<g>
			<rect x="527.8" y="212" class="st0" width="5.6" height="3.2"/>
		</g>
		<g>
			<rect x="516.4" y="253.9" class="st0" width="28.6" height="3.2"/>
		</g>
		<g>
			<rect x="528.8" y="258.2" class="st0" width="3.6" height="3.2"/>
		</g>
	</g>
</g>
<g>
	<ellipse id="Oval-7_00000173137255831518968220000015902167349203942792_" class="st1" cx="542" cy="96" rx="28.1" ry="28"/>
	<path id="Shape_00000169556833956394702380000001211908748320853166_" class="st6" d="M535.2,102.5c-0.9-0.8-1.8-1.6-2.7-2.4
		c-1.4-1.3-2.9-2.5-4.3-3.8c-0.4-0.3-0.6-0.6-1-0.8c0,0.4,0,0.8,0,1.1c0.9-0.8,1.8-1.6,2.7-2.4c1.4-1.3,2.9-2.5,4.3-3.8
		c0.4-0.3,0.6-0.6,1-0.8c0.4-0.3,0.3-0.8,0-1.1c-0.4-0.3-0.8-0.3-1.2,0c-0.9,0.8-1.8,1.6-2.7,2.4c-1.4,1.3-2.9,2.5-4.3,3.8
		c-0.4,0.3-0.6,0.6-1,0.8c-0.3,0.3-0.3,0.8,0,1.1c0.9,0.8,1.8,1.6,2.7,2.4c1.4,1.3,2.9,2.5,4.3,3.8c0.4,0.3,0.6,0.6,1,0.8
		s0.8,0.4,1.2,0C535.5,103.4,535.5,102.8,535.2,102.5L535.2,102.5z"/>
	<path id="Shape_00000172421658798578732620000016539018098602631851_" class="st6" d="M548.8,89.6c0.9,0.8,1.8,1.6,2.7,2.4
		c1.4,1.3,2.9,2.5,4.3,3.8c0.4,0.3,0.6,0.6,1,0.8c0-0.4,0-0.8,0-1.1c-0.9,0.8-1.8,1.6-2.7,2.4c-1.4,1.3-2.9,2.5-4.3,3.8
		c-0.4,0.3-0.6,0.6-1,0.8c-0.4,0.3-0.3,0.8,0,1.1c0.4,0.3,0.8,0.3,1.2,0c0.9-0.8,1.8-1.6,2.7-2.4c1.4-1.3,2.9-2.5,4.3-3.8
		c0.4-0.3,0.6-0.6,1-0.8c0.3-0.3,0.3-0.8,0-1.1c-0.9-0.8-1.8-1.6-2.7-2.4c-1.4-1.3-2.9-2.5-4.3-3.8c-0.4-0.3-0.6-0.6-1-0.8
		c-0.4-0.3-0.8-0.4-1.2,0C548.6,88.7,548.5,89.3,548.8,89.6L548.8,89.6z"/>
	<path id="Shape_00000183970442188529625100000012262634959704289928_" class="st6" d="M539.1,107.3c0.3-0.7,0.5-1.5,0.7-2.2
		c0.6-1.8,1.2-3.5,1.8-5.3c0.7-2.1,1.4-4.2,2.1-6.4c0.6-1.8,1.2-3.6,1.8-5.5c0.3-0.9,0.6-1.8,0.9-2.7c0,0,0,0,0-0.1
		c0.1-0.4-0.1-0.9-0.6-1c-0.4-0.1-0.8,0.1-1,0.6c-0.3,0.7-0.5,1.5-0.7,2.2c-0.6,1.8-1.2,3.5-1.8,5.3c-0.7,2.1-1.4,4.2-2.1,6.4
		c-0.6,1.8-1.2,3.6-1.8,5.5c-0.3,0.9-0.6,1.8-0.9,2.7c0,0,0,0,0,0.1c-0.1,0.4,0.1,0.9,0.6,1C538.5,108,539,107.7,539.1,107.3
		L539.1,107.3z"/>
</g>
<g>
	<rect x="181.7" y="42.3" class="st2" width="163.2" height="163.2"/>
	<rect x="317.2" y="48.9" class="st7" width="4" height="0.5"/>
	<rect x="325.3" y="47.2" class="st8" width="4" height="4"/>
	<g>
		
			<rect x="335" y="46.8" transform="matrix(0.7071 -0.7071 0.7071 0.7071 63.4685 251.5362)" class="st7" width="0.7" height="4.7"/>
		
			<rect x="333" y="48.8" transform="matrix(0.6659 -0.7461 0.7461 0.6659 75.3701 266.6497)" class="st7" width="4.7" height="0.7"/>
	</g>
	<line class="st9" x1="181.7" y1="58.6" x2="345" y2="58.6"/>
	<line class="st9" x1="263.3" y1="58.6" x2="263.3" y2="205"/>
	<line class="st9" x1="195.2" y1="67.4" x2="210" y2="67.4"/>
	<line class="st9" x1="218.9" y1="67.4" x2="249.7" y2="67.4"/>
	<line class="st9" x1="202.6" y1="74.8" x2="216.1" y2="74.8"/>
	<line class="st9" x1="222.7" y1="82.2" x2="255.7" y2="82.2"/>
	<line class="st9" x1="195.2" y1="89.7" x2="239.2" y2="89.7"/>
	<line class="st9" x1="216.1" y1="97.1" x2="232.2" y2="97.1"/>
	<line class="st9" x1="239.2" y1="104.5" x2="255.7" y2="104.5"/>
	<line class="st9" x1="195.2" y1="112" x2="202.6" y2="112"/>
	<line class="st9" x1="206.9" y1="119.4" x2="220.3" y2="119.4"/>
	<line class="st9" x1="225" y1="126.8" x2="243.6" y2="126.8"/>
	<line class="st9" x1="197.6" y1="134.3" x2="216.2" y2="134.3"/>
	<line class="st9" x1="211" y1="141.7" x2="229.5" y2="141.7"/>
	<line class="st9" x1="211" y1="149.1" x2="218.9" y2="149.1"/>
	<line class="st9" x1="224.2" y1="156.6" x2="229.5" y2="156.6"/>
	<line class="st9" x1="211" y1="164" x2="222.7" y2="164"/>
	<line class="st9" x1="226.9" y1="171.4" x2="234.3" y2="171.4"/>
	<line class="st9" x1="197.6" y1="178.9" x2="213.6" y2="178.9"/>
	<line class="st9" x1="222.7" y1="186.3" x2="229.5" y2="186.3"/>
	<line class="st9" x1="202.6" y1="193.7" x2="234.3" y2="193.7"/>
	<rect x="272.3" y="67.4" class="st9" width="65" height="53.8"/>
	<line class="st9" x1="282.8" y1="136.2" x2="326.8" y2="136.2"/>
	<line class="st9" x1="282.8" y1="170.6" x2="326.8" y2="170.6"/>
	<line class="st9" x1="282.8" y1="180.8" x2="326.8" y2="180.8"/>
	<rect x="282.8" y="145.3" class="st9" width="44" height="14.7"/>
	<polyline class="st9" points="300.6,82.3 312.5,94.3 300.6,106.3 	"/>
</g>
</svg>
