<?xml version="1.0" encoding="utf-8"?>
<!-- Generator: Adobe Illustrator 26.0.2, SVG Export Plug-In . SVG Version: 6.00 Build 0)  -->
<svg version="1.1" xmlns="http://www.w3.org/2000/svg" xmlns:xlink="http://www.w3.org/1999/xlink" x="0px" y="0px"
	 viewBox="0 0 400 400" style="enable-background:new 0 0 400 400;" xml:space="preserve">
<style type="text/css">
	.st0{display:none;}
	.st1{display:inline;}
	.st2{fill:#1A2238;}
</style>
<g id="Layer_1" class="st0">
	<g class="st1">
		<path class="st2" d="M345,33.1h-297c-10.5,0-19,8.5-19,19v297c0,10.5,8.5,19,19,19h297c10.5,0,19-8.5,19-19v-297
			C364,41.6,355.4,33.1,345,33.1z M353,349.1c0,4.4-3.6,8-8.1,8h-297c-4.4,0-8-3.6-8-8V90.4H353V349.1z M353,79.5H39.9V52.1
			c0-4.4,3.6-8,8-8h297c4.4,0,8.1,3.6,8.1,8V79.5z"/>
		<ellipse transform="matrix(0.7071 -0.7071 0.7071 0.7071 53.756 253.326)" class="st2" cx="332.7" cy="61.8" rx="9.8" ry="9.8"/>
		<ellipse transform="matrix(0.9732 -0.2298 0.2298 0.9732 -6.0787 71.3405)" class="st2" cx="303.3" cy="61.8" rx="9.8" ry="9.8"/>
		<ellipse transform="matrix(0.9732 -0.2298 0.2298 0.9732 -6.8639 64.5964)" class="st2" cx="274" cy="61.8" rx="9.8" ry="9.8"/>
		<path class="st2" d="M62.8,187.8h12.7c3,0,5.5-2.5,5.5-5.5c0-3-2.5-5.5-5.5-5.5H62.8c-3,0-5.5,2.5-5.5,5.5
			C57.3,185.4,59.8,187.8,62.8,187.8z"/>
		<path class="st2" d="M62.8,147.2h12.7c3,0,5.5-2.5,5.5-5.5c0-3-2.5-5.5-5.5-5.5H62.8c-3,0-5.5,2.5-5.5,5.5
			C57.3,144.8,59.8,147.2,62.8,147.2z"/>
		<path class="st2" d="M62.8,167.5h12.7c3,0,5.5-2.5,5.5-5.5c0-3-2.5-5.5-5.5-5.5H62.8c-3,0-5.5,2.5-5.5,5.5
			C57.3,165.1,59.8,167.5,62.8,167.5z"/>
		<path class="st2" d="M62.8,208.1h12.7c3,0,5.5-2.5,5.5-5.5s-2.5-5.5-5.5-5.5H62.8c-3,0-5.5,2.5-5.5,5.5S59.8,208.1,62.8,208.1z"/>
		<path class="st2" d="M95.8,187.8h76c3,0,5.5-2.5,5.5-5.5c0-3-2.5-5.5-5.5-5.5h-76c-3,0-5.5,2.5-5.5,5.5
			C90.3,185.4,92.8,187.8,95.8,187.8z"/>
		<path class="st2" d="M95.8,269h58.6c3,0,5.5-2.5,5.5-5.5c0-3-2.5-5.5-5.5-5.5H95.8c-3,0-5.5,2.5-5.5,5.5
			C90.3,266.6,92.8,269,95.8,269z"/>
		<path class="st2" d="M62.8,309.7h12.7c3,0,5.5-2.5,5.5-5.5c0-3-2.5-5.5-5.5-5.5H62.8c-3,0-5.5,2.5-5.5,5.5
			C57.3,307.2,59.8,309.7,62.8,309.7z"/>
		<path class="st2" d="M62.8,289.3h12.7c3,0,5.5-2.5,5.5-5.5c0-3-2.5-5.5-5.5-5.5H62.8c-3,0-5.5,2.5-5.5,5.5
			C57.3,286.9,59.8,289.3,62.8,289.3z"/>
		<path class="st2" d="M62.8,269h12.7c3,0,5.5-2.5,5.5-5.5c0-3-2.5-5.5-5.5-5.5H62.8c-3,0-5.5,2.5-5.5,5.5
			C57.3,266.6,59.8,269,62.8,269z"/>
		<path class="st2" d="M62.8,330h12.7c3,0,5.5-2.5,5.5-5.5c0-3-2.5-5.5-5.5-5.5H62.8c-3,0-5.5,2.5-5.5,5.5
			C57.3,327.5,59.8,330,62.8,330z"/>
		<path class="st2" d="M95.8,289.3h32.7c3,0,5.5-2.5,5.5-5.5c0-3-2.5-5.5-5.5-5.5H95.8c-3,0-5.5,2.5-5.5,5.5
			C90.3,286.9,92.8,289.3,95.8,289.3z"/>
		<path class="st2" d="M95.8,309.7h21c3,0,5.5-2.5,5.5-5.5c0-3-2.5-5.5-5.5-5.5h-21c-3,0-5.5,2.5-5.5,5.5
			C90.3,307.2,92.8,309.7,95.8,309.7z"/>
		<path class="st2" d="M95.8,248.7h31.3c3,0,5.5-2.5,5.5-5.5c0-3-2.5-5.5-5.5-5.5H95.8c-3,0-5.5,2.5-5.5,5.5
			C90.3,246.3,92.8,248.7,95.8,248.7z"/>
		<path class="st2" d="M95.8,228.4H208c3,0,5.5-2.5,5.5-5.5c0-3-2.5-5.5-5.5-5.5H95.8c-3,0-5.5,2.5-5.5,5.5
			C90.3,226,92.8,228.4,95.8,228.4z"/>
		<path class="st2" d="M62.8,228.4h12.7c3,0,5.5-2.5,5.5-5.5c0-3-2.5-5.5-5.5-5.5H62.8c-3,0-5.5,2.5-5.5,5.5
			C57.3,226,59.8,228.4,62.8,228.4z"/>
		<path class="st2" d="M191,269c3,0,5.5-2.5,5.5-5.5c0-3-2.5-5.5-5.5-5.5h-19.2c-3,0-5.5,2.5-5.5,5.5c0,3,2.5,5.5,5.5,5.5H191z"/>
		<path class="st2" d="M156.9,237.8h-12.6c-3,0-5.5,2.5-5.5,5.5c0,3,2.5,5.5,5.5,5.5h12.6c3,0,5.5-2.5,5.5-5.5
			C162.4,240.2,159.9,237.8,156.9,237.8z"/>
		<path class="st2" d="M95.8,208.1h28.8c3,0,5.5-2.5,5.5-5.5s-2.5-5.5-5.5-5.5H95.8c-3,0-5.5,2.5-5.5,5.5S92.8,208.1,95.8,208.1z"/>
		<path class="st2" d="M62.8,248.7h12.7c3,0,5.5-2.5,5.5-5.5c0-3-2.5-5.5-5.5-5.5H62.8c-3,0-5.5,2.5-5.5,5.5
			C57.3,246.3,59.8,248.7,62.8,248.7z"/>
		<path class="st2" d="M62.8,126.9h12.7c3,0,5.5-2.5,5.5-5.5c0-3-2.5-5.5-5.5-5.5H62.8c-3,0-5.5,2.5-5.5,5.5
			C57.3,124.4,59.8,126.9,62.8,126.9z"/>
		<path class="st2" d="M95.8,330h45.8c3,0,5.5-2.5,5.5-5.5c0-3-2.5-5.5-5.5-5.5H95.8c-3,0-5.5,2.5-5.5,5.5
			C90.3,327.5,92.8,330,95.8,330z"/>
		<path class="st2" d="M222.9,56.3H62.8c-3,0-5.5,2.5-5.5,5.5c0,3,2.5,5.5,5.5,5.5h160.1c3,0,5.5-2.5,5.5-5.5
			C228.4,58.8,225.9,56.3,222.9,56.3z"/>
		<path class="st2" d="M251.5,136.3h-33.9c-3,0-5.5,2.5-5.5,5.5c0,3,2.5,5.5,5.5,5.5h33.9c3,0,5.5-2.5,5.5-5.5
			C257,138.7,254.5,136.3,251.5,136.3z"/>
		<path class="st2" d="M216.9,182.3c0,3,2.5,5.5,5.5,5.5h40.2c3,0,5.5-2.5,5.5-5.5c0-3-2.5-5.5-5.5-5.5h-40.2
			C219.4,176.9,216.9,179.3,216.9,182.3z"/>
		<path class="st2" d="M247.4,126.9h38.7c3,0,5.5-2.5,5.5-5.5c0-3-2.5-5.5-5.5-5.5h-38.7c-3,0-5.5,2.5-5.5,5.5
			C241.9,124.4,244.4,126.9,247.4,126.9z"/>
		<path class="st2" d="M168.2,298.7h-35.3c-3,0-5.5,2.5-5.5,5.5c0,3,2.5,5.5,5.5,5.5h35.3c3,0,5.5-2.5,5.5-5.5
			C173.7,301.2,171.3,298.7,168.2,298.7z"/>
		<path class="st2" d="M253.1,263.6c0,3,2.5,5.5,5.5,5.5h33.5c3,0,5.5-2.5,5.5-5.5c0-3-2.5-5.5-5.5-5.5h-33.5
			C255.6,258.1,253.1,260.5,253.1,263.6z"/>
		<path class="st2" d="M242.8,217.5h-17.4c-3,0-5.5,2.5-5.5,5.5c0,3,2.5,5.5,5.5,5.5h17.4c3,0,5.5-2.5,5.5-5.5
			C248.3,219.9,245.8,217.5,242.8,217.5z"/>
		<path class="st2" d="M201.6,278.4h-55.7c-3,0-5.5,2.5-5.5,5.5c0,3,2.5,5.5,5.5,5.5h55.7c3,0,5.5-2.5,5.5-5.5
			C207.1,280.9,204.6,278.4,201.6,278.4z"/>
		<path class="st2" d="M241.4,258.1h-33.5c-3,0-5.5,2.5-5.5,5.5c0,3,2.5,5.5,5.5,5.5h33.5c3,0,5.5-2.5,5.5-5.5
			C246.8,260.5,244.4,258.1,241.4,258.1z"/>
		<path class="st2" d="M230.4,278.4h-12.8c-3,0-5.5,2.5-5.5,5.5c0,3,2.5,5.5,5.5,5.5h12.8c3,0,5.5-2.5,5.5-5.5
			C235.8,280.9,233.4,278.4,230.4,278.4z"/>
		<path class="st2" d="M95.8,126.9h43c3,0,5.5-2.5,5.5-5.5c0-3-2.5-5.5-5.5-5.5h-43c-3,0-5.5,2.5-5.5,5.5
			C90.3,124.4,92.8,126.9,95.8,126.9z"/>
		<path class="st2" d="M186.2,126.9h43c3,0,5.5-2.5,5.5-5.5c0-3-2.5-5.5-5.5-5.5h-43c-3,0-5.5,2.5-5.5,5.5
			C180.7,124.4,183.2,126.9,186.2,126.9z"/>
		<path class="st2" d="M161.1,167.5h26c3,0,5.5-2.5,5.5-5.5c0-3-2.5-5.5-5.5-5.5h-26c-3,0-5.5,2.5-5.5,5.5
			C155.6,165.1,158,167.5,161.1,167.5z"/>
		<path class="st2" d="M156.9,126.9h10.7c3,0,5.5-2.5,5.5-5.5c0-3-2.5-5.5-5.5-5.5h-10.7c-3,0-5.5,2.5-5.5,5.5
			C151.4,124.4,153.8,126.9,156.9,126.9z"/>
		<path class="st2" d="M204.2,141.7c0-3-2.5-5.5-5.5-5.5h-67.8c-3,0-5.5,2.5-5.5,5.5c0,3,2.5,5.5,5.5,5.5h67.8
			C201.8,147.2,204.2,144.8,204.2,141.7z"/>
		<path class="st2" d="M95.8,167.5h45.8c3,0,5.5-2.5,5.5-5.5c0-3-2.5-5.5-5.5-5.5H95.8c-3,0-5.5,2.5-5.5,5.5
			C90.3,165.1,92.8,167.5,95.8,167.5z"/>
		<path class="st2" d="M95.8,147.2h17.4c3,0,5.5-2.5,5.5-5.5c0-3-2.5-5.5-5.5-5.5H95.8c-3,0-5.5,2.5-5.5,5.5
			C90.3,144.8,92.8,147.2,95.8,147.2z"/>
		<path class="st2" d="M190.5,187.8h15c3,0,5.5-2.5,5.5-5.5c0-3-2.5-5.5-5.5-5.5h-15c-3,0-5.5,2.5-5.5,5.5
			C185,185.4,187.4,187.8,190.5,187.8z"/>
	</g>
</g>
<g id="Layer_2" class="st0">
	<g class="st1">
		<g>
			<g>
				<path class="st2" d="M287.6,367.1H214V34.3h73.6V367.1z M223.2,357.8h55.1V43.5h-55.1V357.8z"/>
			</g>
			<g>
				<path class="st2" d="M245.4,86.7c-7.8,0-14.1-6.3-14.1-14.1c0-7.8,6.3-14.1,14.1-14.1c7.8,0,14.1,6.3,14.1,14.1
					C259.5,80.4,253.2,86.7,245.4,86.7z M245.4,67.9c-2.7,0-4.8,2.2-4.8,4.8s2.2,4.8,4.8,4.8c2.7,0,4.8-2.2,4.8-4.8
					S248.1,67.9,245.4,67.9z"/>
			</g>
			<g>
				<g>
					<rect x="261.6" y="100.4" class="st2" width="21.4" height="9.3"/>
				</g>
				<g>
					<rect x="249.4" y="128.7" class="st2" width="33.5" height="9.3"/>
				</g>
				<g>
					<rect x="249.4" y="185.3" class="st2" width="33.5" height="9.3"/>
				</g>
				<g>
					<rect x="249.4" y="242" class="st2" width="33.5" height="9.3"/>
				</g>
				<g>
					<rect x="249.4" y="298.6" class="st2" width="33.5" height="9.3"/>
				</g>
				<g>
					<rect x="261.6" y="270.3" class="st2" width="21.4" height="9.3"/>
				</g>
				<g>
					<rect x="261.6" y="213.7" class="st2" width="21.4" height="9.3"/>
				</g>
				<g>
					<rect x="261.6" y="157" class="st2" width="21.4" height="9.3"/>
				</g>
				<g>
					<rect x="261.6" y="326.9" class="st2" width="21.4" height="9.3"/>
				</g>
			</g>
		</g>
		<g>
			<g>
				<path class="st2" d="M154.7,370.1h-26.6c-12.6,0-22.8-10.2-22.8-22.8V107.4l0.4-0.9l35.7-75.3l36.1,76.2v239.9
					C177.5,359.9,167.3,370.1,154.7,370.1z M114.6,109.5v237.8c0,7.5,6.1,13.6,13.6,13.6h26.6c7.5,0,13.6-6.1,13.6-13.6V109.5
					l-26.9-56.7L114.6,109.5z"/>
			</g>
			<g>
				<rect x="147.4" y="108.4" class="st2" width="9.2" height="219.7"/>
			</g>
			<g>
				<rect x="126.3" y="108.4" class="st2" width="9.2" height="219.7"/>
			</g>
			<g>
				<rect x="110" y="323.6" class="st2" width="63" height="9.3"/>
			</g>
			<g>
				<rect x="130.9" y="59.7" class="st2" width="21.2" height="9.3"/>
			</g>
			<g>
				<rect x="110" y="103.8" class="st2" width="63" height="9.3"/>
			</g>
		</g>
	</g>
</g>
<g id="Layer_3">
	<g>
		<path class="st2" d="M196.5,173.9c3,0,5.5-2.5,5.5-5.5v-74c0-3-2.5-5.5-5.5-5.5c-3,0-5.5,2.5-5.5,5.5v74
			C190.9,171.4,193.4,173.9,196.5,173.9z"/>
		<path class="st2" d="M90.6,173.9c3,0,5.5-2.5,5.5-5.5v-73c0-3-2.5-5.5-5.5-5.5c-3,0-5.5,2.5-5.5,5.5v73
			C85.1,171.4,87.6,173.9,90.6,173.9z"/>
		<path class="st2" d="M217.6,173.9c3,0,5.5-2.5,5.5-5.5v-51.6c0-3-2.5-5.5-5.5-5.5c-3,0-5.5,2.5-5.5,5.5v51.6
			C212.1,171.4,214.6,173.9,217.6,173.9z"/>
		<path class="st2" d="M111.8,173.9c3,0,5.5-2.5,5.5-5.5v-30.5c0-3-2.5-5.5-5.5-5.5s-5.5,2.5-5.5,5.5v30.5
			C106.3,171.4,108.7,173.9,111.8,173.9z"/>
		<path class="st2" d="M133,173.9c3,0,5.5-2.5,5.5-5.5v-51.6c0-3-2.5-5.5-5.5-5.5c-3,0-5.5,2.5-5.5,5.5v51.6
			C127.4,171.4,129.9,173.9,133,173.9z"/>
		<path class="st2" d="M281.1,173.9c3,0,5.5-2.5,5.5-5.5v-25.8c0-3-2.5-5.5-5.5-5.5c-3,0-5.5,2.5-5.5,5.5v25.8
			C275.6,171.4,278.1,173.9,281.1,173.9z"/>
		<path class="st2" d="M260,173.9c3,0,5.5-2.5,5.5-5.5v-66.2c0-3-2.5-5.5-5.5-5.5s-5.5,2.5-5.5,5.5v66.2
			C254.4,171.4,256.9,173.9,260,173.9z"/>
		<path class="st2" d="M238.8,173.9c3,0,5.5-2.5,5.5-5.5v-44.6c0-3-2.5-5.5-5.5-5.5c-3,0-5.5,2.5-5.5,5.5v44.6
			C233.3,171.4,235.7,173.9,238.8,173.9z"/>
		<path class="st2" d="M302.3,192.3H181.6c-3,0-5.5,2.5-5.5,5.5c0,3,2.5,5.5,5.5,5.5h120.7c3,0,5.5-2.5,5.5-5.5
			C307.8,194.8,305.3,192.3,302.3,192.3z"/>
		<path class="st2" d="M121,184.7c-9.7,0-18.6,3.9-25.1,10.2c-0.1,0.1-0.2,0.2-0.3,0.3c-0.1,0.1-0.2,0.2-0.3,0.3
			c-6.3,6.5-10.2,15.3-10.2,25.1c0,13.3,7.3,25,18.1,31.2c0.1,0.1,0.2,0.1,0.3,0.2c0.1,0.1,0.2,0.1,0.3,0.2
			c5.1,2.8,10.9,4.3,17.1,4.3c19.8,0,35.9-16.1,35.9-35.9C156.9,200.8,140.8,184.7,121,184.7z M96.1,220.6c0-4.9,1.4-9.4,3.8-13.2
			l14.2,14.2l-9.7,17.5C99.3,234.6,96.1,228,96.1,220.6z M121,245.5c-2.4,0-4.7-0.3-6.9-1l11.8-21.2c1.2-2.2,0.8-4.8-0.9-6.6
			l-17.1-17.1c3.8-2.4,8.4-3.8,13.2-3.8c13.7,0,24.9,11.2,24.9,24.9C145.9,234.3,134.7,245.5,121,245.5z"/>
		<path class="st2" d="M302.3,118.2c-3,0-5.5,2.5-5.5,5.5v44.6c0,3,2.5,5.5,5.5,5.5c3,0,5.5-2.5,5.5-5.5v-44.6
			C307.8,120.7,305.3,118.2,302.3,118.2z"/>
		<path class="st2" d="M329.5,34h-266c-19.8,0-35.9,16.1-35.9,35.9v201.4c0,19.8,16.1,35.9,35.9,35.9h89.6v22.6h-29.4
			c-10,0-18.2,8.2-18.2,18.2v5.6c0,13.8,11.6,13.8,16,13.8h149.9c4.4,0,16,0,16-13.8v-5.6c0-10-8.2-18.2-18.2-18.2h-29.4v-22.6h89.6
			c19.8,0,35.9-16.1,35.9-35.9V69.8C365.3,50.1,349.2,34,329.5,34z M269.2,340.8c4,0,7.2,3.2,7.2,7.2v5.6c0,1.5-0.2,2.1-0.3,2.2
			c-0.3,0.1-1.3,0.5-4.7,0.5H121.5c-3.4,0-4.4-0.4-4.7-0.5c-0.1-0.2-0.3-0.8-0.3-2.2v-5.6c0-4,3.2-7.2,7.2-7.2h34.8c0,0,0.1,0,0.1,0
			h75.7c0,0,0.1,0,0.1,0H269.2z M164.1,329.7v-22.6h64.7v22.6H164.1z M354.3,271.2c0,13.7-11.1,24.8-24.8,24.8h-95.1
			c0,0-0.1,0-0.1,0h-75.5c0,0-0.1,0-0.1,0H63.5c-13.7,0-24.8-11.1-24.8-24.8V69.8C38.6,56.1,49.8,45,63.5,45h266
			c13.7,0,24.8,11.1,24.8,24.8V271.2z"/>
		<path class="st2" d="M326,60.5H66.9c-7.1,0-12.8,5.8-12.8,12.8v194.5c0,7.1,5.8,12.8,12.8,12.8H326c7.1,0,12.8-5.8,12.8-12.8V73.3
			C338.8,66.2,333.1,60.5,326,60.5z M327.8,267.8c0,1-0.8,1.8-1.8,1.8H66.9c-1,0-1.8-0.8-1.8-1.8V73.3c0-1,0.8-1.8,1.8-1.8H326
			c1,0,1.8,0.8,1.8,1.8V267.8z"/>
		<path class="st2" d="M302.3,215.1H181.6c-3,0-5.5,2.5-5.5,5.5c0,3,2.5,5.5,5.5,5.5h120.7c3,0,5.5-2.5,5.5-5.5
			C307.8,217.6,305.3,215.1,302.3,215.1z"/>
		<path class="st2" d="M154.1,142.9c-3,0-5.5,2.5-5.5,5.5v19.9c0,3,2.5,5.5,5.5,5.5c3,0,5.5-2.5,5.5-5.5v-19.9
			C159.6,145.4,157.2,142.9,154.1,142.9z"/>
		<path class="st2" d="M180.8,168.4V135c0-3-2.5-5.5-5.5-5.5c-3,0-5.5,2.5-5.5,5.5v33.3c0,3,2.5,5.5,5.5,5.5
			C178.3,173.9,180.8,171.4,180.8,168.4z"/>
		<path class="st2" d="M302.3,237.9H181.6c-3,0-5.5,2.5-5.5,5.5s2.5,5.5,5.5,5.5h120.7c3,0,5.5-2.5,5.5-5.5S305.3,237.9,302.3,237.9
			z"/>
	</g>
</g>
</svg>
